<svg version="1" xmlns="http://www.w3.org/2000/svg" width="682.667" height="682.667" viewBox="0 0 512.000000 512.000000"><path d="M242.6 37.2c.3.4 0 .8-.6.8s-.9.4-.6.9c.4.5-.4.7-1.6.3-1.8-.4-2-.2-1.5 1.4.6 1.7.5 1.7-.5.2-1.1-1.5-1.3-1.5-2.6 0-.7.9-1.1 1.2-.8.6.3-.7-.1-1.5-1-1.8-.8-.3-1.2-.2-.9.4.7 1.1-.8 1.4-1.9.3-.3-.4-1.5-.7-2.6-.8-1.4-.1-1.7.2-1 1s.1 1.1-2 .9c-1.9-.1-2.8.2-2.3.9.4.6-.2.8-1.5.5-1.2-.4-2-.3-1.7.2.7 1.1-2 2-5.8 2-2.5 0-2.9.3-1.7 1.1s1.1.9-.5.7c-1.2-.3-2.5.4-3.3 1.7-1.2 1.7-1.3 1.8-.7.1.4-1.5.3-1.7-.8-.8-.8.7-1.7.8-2.3.3-.5-.6-2.1.1-3.9 1.6-2.9 2.5-2.9 2.5-.2.9 2.8-1.7 3.6-1.3 1.4.8-.7.7-2.2 1.2-3.5 1.1-1.2-.1-2.2.3-2.2.8s-.9.7-2 .4c-1.1-.3-1.8 0-1.7.7.1.6-.4 1-1.1.8-.8-.1-1.1.2-.7.8.5.8-1.4 1.5-3.6 1.2-.4-.1-.5.9-.3 2.1.2 1.2.1 1.6-.2.9-.5-1-1-.9-2.1.5-.8 1-1.1 1.2-.7.4.5-.9.3-1.2-.5-.7-.7.4-.9 1.7-.6 2.9.5 1.9.4 2-.5.5-1.2-1.9-4-1.3-4 .8 0 .8-.4 1.4-1 1.4-1.3 0-5 3.7-5 4.9 0 .6-.5 1.3-1.2 1.7-.7.4-.8.3-.4-.4s.2-1.2-.3-1.2c-.6 0-1.1.7-1.1 1.5s-.5 1.5-1.2 1.5c-.6 0-.9.3-.5.6.8.8-1.8 3.4-3.3 3.4-.7 0-1 .7-.7 1.4.4 1.1.1 1.3-1 .9-1.2-.5-1.5-.2-1 1 .4 1 .2 1.6-.6 1.4-.7-.1-1.1.4-.9 1.2.3 1.2 0 1.2-1.3.1-1.3-1.1-1.5-1-.9.4.4.9.3 1.6-.2 1.5-2.1-.3-2.4.2-1.4 2.2 1 1.9 1 2-.8 1s-2-.8-1.8 1.9c.2 2.3-.1 2.7-1.1 1.8-1.1-.8-1.2-.7-.7.7.6 1.4.4 1.6-.6 1-1-.6-1.2-.3-.8 1.3.4 1.2.2 2.5-.3 2.8-.5.3-.7 1-.3 1.5.3.5.2.9-.3.8-1.9-.3-3.3.2-3.3 1.2 0 .5.5.7 1.2.3.7-.4.8-.3.4.5-.6.9-1.1.9-2.4-.1-1.3-1.1-1.4-1.1-.8 0 .4.7.2 2-.6 2.9-1.1 1.4-1.1 1.6.2.8s1.3-.6.1.8c-.7.9-1.7 1.5-2.1 1.2-.5-.3-.6.3-.3 1.3.2 1.1-.3 2.6-1.2 3.6-.9.9-1.2 1.6-.7 1.6s.9.7.9 1.5c0 1.4-1 1.9-2.9 1.6-.4 0-1.2.9-1.8 2.2-1.1 2.1-1 2.1.4.3 1.4-1.7 1.6-1.7 1.6-.3 0 .9-.6 2.2-1.4 2.9-1.1 1.1-1.1 1.5.3 2.5 1.4 1.2 1.4 1.2-.3.6-1.3-.4-1.7-.3-1.2.5.3.6-.2 1.6-1.1 2.2-1.5.9-1.4 1 .7.5 2.4-.6 2.5-.6.5 1-1.1.9-1.9 2.3-1.7 3.2.2.8-.1 1.2-.6.9-.6-.3-.8.2-.5 1.4.3 1.3 0 2-.8 2-1.2 0-1.2.2 0 .9 1 .6 1 1 .1 1.6-.8.5-.6 1.3.7 2.8 1 1.1 1.3 1.8.8 1.4-.6-.3-1.7.4-2.5 1.6-1.2 2-1.2 2.1.3.8 2.3-1.8 2.1-.9-.3 1.9-1.1 1.3-2 2.8-2 3.3 0 .6.6.3 1.3-.8 1.1-1.4 1.6-1.5 2.2-.5.5.7.4 1.1-.1.8-.5-.3-1.9 1.8-3 4.8-2.5 6.3-2.3 7 .5 1.6 2.4-4.4 2.7-3.9.6 1.2-.8 2-1.1 3.6-.7 3.6.5 0 .9.7.9 1.5 0 1.1-.4 1.2-1.4.4-1.8-1.6-1.6-.4.3 1.6 2.1 2.1 1 3.2-1.3 1.4-1.7-1.3-1.7-1.3-.3.5.8 1 1.5 3.6 1.5 5.7s.8 4.8 1.7 5.8c1.6 1.8 1.6 2 0 2.4-1.5.4-1.5.5.1.6.9 0 1.7.6 1.7 1.2 0 .5-.4.8-.8.5-.5-.3-.9.1-.9.9s.4 1.2.8 1c.3-.3.9.4 1.2 1.5.3 1.1.2 1.9-.2 1.8-2-.2-2.2.4-.5 1.8 1.7 1.4 1.7 1.5.1 1-1.1-.3-1.6-.2-1.2.4.3.6 1.3 1 2.1 1s1.4.4 1.4 1c0 .5-.8.6-1.7.3-1.2-.5-1 0 .6 1.6 1.7 1.7 2 2.6 1.1 3.6-.8 1-.8 1.5.1 2.1.8.4.9.3.5-.4s-.3-1.2.3-1.2.9 1.7.7 4c-.3 3.2-.1 3.8.9 3 1-.8 1.5-.8 2.1.1.4.7.3.9-.3.6-.6-.4-1.3.2-1.6 1.2-.3 1.5-.1 1.8 1.1 1.4 1-.4 1.3-.2.8.5-.4.7-.2 1.2.5 1.2 1 0 1 .3.1 1.2-.7.7-1.2 1.7-1.2 2.2 0 .6.5.4 1.1-.4.8-1.2 1-.9.6 1.3-.2 1.5 0 3 .6 3.4.6.3.7.1.3-.5-1.1-1.8 1-1.4 2.5.5 1.2 1.4 1.2 1.6-.1.9-.8-.4-.7-.1.3.7 1.2 1 1.4 1.7.7 2.2-1.2.8-.4 2.5 1.3 2.5.7 0 .6-.4-.3-1-.8-.5-1-1-.4-1 1.9 0 2.4 1.3 1.1 2.8-1 1.3-.9 1.5.4 1 1.2-.5 1.6 0 1.5 2-.1 1.9.6 3 2.4 3.9 1.4.7 1.9 1.3 1 1.3-1.1 0-1 .3.4 1.1 1.4.9 1.5 1.3.5 1.9-.9.6-.5 1.1 1.4 1.5 1.5.4 2.5 1.1 2.2 1.5-.3.4.2 1.1 1.1 1.4.8.3 1.3 1 .9 1.5-.3.5 0 1.3.6 1.7.8.4.9.3.5-.4s-.2-1.2.3-1.2c.6 0 1.1.9 1.1 2.1 0 1.1.4 1.8.9 1.5.5-.3 1.2.1 1.5.9.3.8.9 1.5 1.3 1.4 2-.3 2.4.2 1.3 1.7-.8.8-.9 1.4-.4 1.3 2.2-.4 3.4.2 3.4 1.7 0 1 .6 1.4 1.5 1.1.8-.4 1.7-.1 2.1.5.4.7.3.8-.4.4s-1.2-.2-1.2.3c0 .6.5 1.1 1.1 1.1 1.7 0 4.1 2.9 3.3 4.1-.4.8-.3.9.4.5 1.3-.8 5.3 2.9 4.4 4-.4.5.1.2 1.1-.5 1-.8 1.7-.9 1.7-.3 0 .6 1.1 2.2 2.5 3.6s2.5 2.1 2.5 1.6c0-.6.5-1 1.1-1 .6 0 .9.7.6 1.4-.4 1-.1 1.3.9.9.8-.3 2.3.5 3.5 1.8 1.1 1.3 1.8 1.9 1.5 1.2-.4-.7.1-1.1 1.3-1 1.1 0 1.7.5 1.4 1.1-.4.5.1.7 1.2.2 1.6-.6 1.6-.4.4 1.1-.8.9-.9 1.4-.3 1 .7-.4 1.7 0 2.4.8 1 1.2 1.6 1.3 2.6.4 1.1-.9 1.4-.8 1.4.2 0 1.1.2 1.1 1-.1.8-1.3 1-1.3 1-.1 0 1.1.4 1 1.6-.5.8-1 1.3-1.3.9-.6-.4.7.7 2.4 2.6 3.9 3.1 2.7 6.5 4 5.3 2.2-.3-.5-.9-.7-1.4-.4-.5.3-1.1.1-1.4-.4-1.3-2 2.8-.3 4.7 2 1.9 2.3 1.9 2.3 1.3.2-.4-1.2-.3-2.4.2-2.7.6-.3.9.2.8 1.2-.1 1.2.7 1.7 2.7 1.8 1.6.1 3.3.7 3.7 1.4.5.8 1.3.9 2.1.4 2.4-1.5 4.2-1.4 2.9.1-.9 1.1-.7 1.2 1.1.8 1.7-.5 2-.3 1.4.8-.8 1.2-.6 1.2.8 0 1.4-1.1 1.7-1.1 1.7 0 0 1 .3 1 1.2.1.7-.7 1.7-1.2 2.3-1.2.5.1-.1 1-1.4 2-1.3 1.1-1.8 2-1.3 2 .6 0 1.3-.4 1.7-1 .4-.6 1.5-.6 3.1 0 1.7.7 2.3.7 1.9 0-.3-.6.1-1 1-1 1 0 1.4.5.9 1.2-.6 1-.4 1 .7 0 .7-.6 2.1-1.2 3-1.2 1 0 2.1-.5 2.5-1.2.5-.8.2-.9-1.1-.4-1.5.5-1.6.4-.5-.9.7-.8 1.7-1.2 2.2-.9.6.4.4-.4-.3-1.7-1.1-2.2-1.1-2.3.5-1 1.4 1.2 1.6 1.2 1-.4-.5-1.3-.4-1.6.5-1 1 .6 1.1.3.1-1.5-.8-1.5-.8-2-.1-1.6.6.4 1.4 0 1.7-.8.3-.9 1-1.4 1.5-1.1.4.3.6-.3.4-1.4-.3-1.5 0-1.8 1.2-1.4 1.1.4 1.4.2.9-.5-.4-.8 0-1.2 1.1-1.2 1.5 0 1.6-.2.3-1-1-.6-1.1-1-.2-1 .6 0 1.2-.5 1.2-1.1 0-.5-.5-.7-1.2-.3-.7.4-.8.3-.4-.5.6-.9 1.1-.9 2.1-.1.9.8 1.2.4 1-1.5-.3-2.2-.1-2.4 1.7-1.4 1.8.9 1.8.8.9-1-1-1.7-.8-1.9 1-1.6 1.7.4 1.9.2.8-1.1-1-1.2-.9-1.3.3-.9 1 .4 1.7-.1 2.1-1.5.4-1.4 1-1.9 1.8-1.4.8.4 1 .3.5-.5-.4-.6 0-1.8.8-2.7 1.2-1.2 1.6-1.2 1.7-.2 0 .7.5.2 1-1.1.6-1.6 1.4-2.1 2.6-1.7 1 .4 1.4.4 1 0-.4-.4.1-1.3 1.1-2.1 1.6-1.4 1.6-1.4 0-.9-1 .3-1.7.2-1.7-.2.4-2.6-.2-3.3-1.7-1.7-1.5 1.5-1.8 1.5-3.7-.2-1.1-1-1.7-1.3-1.4-.7 1.1 1.9-1.9 2.4-4.1.8-1.5-1-2.3-1.1-2.8-.3s-.3.9.7.4c.8-.5 1-.4.6 0-1.3 1.5-3.6 1.4-3-.1.4-1 0-1.2-1.1-.8-.9.3-1.4 1-1.1 1.4.4.7-1.7.7-3.5 0-.3-.1-.8-.2-1.2-.1-.5 0-.8-.4-.8-1 0-.5-.5-.7-1-.4-.6.4-.8 1-.6 1.4.3.4-.1.8-.9.8s-1.2-.4-.9-.9c.8-1.3-1-1-2.5.4-1 .9-1.2.9-.7.1.3-.6.2-1.4-.4-1.8-.5-.3-1 .1-1 .9 0 .9-.5 1.6-1 1.6-.6 0-.9-.3-.9-.8.3-1.9-.2-2.2-1.7-.7-1.5 1.5-1.8 1.5-3.7-.2-1.1-1-1.7-1.2-1.2-.4.5.9.3 1.2-.6.9-.8-.3-2.2-.1-3.1.3-1.2.7-2 .4-2.7-.8-1-1.7-1-1.7-1.1-.1 0 1-.5 1.8-1 1.8-.6 0-.9-.3-.9-.8.3-1.9-.2-2.2-1.7-.7-1.5 1.5-1.8 1.5-3.7-.2-1.1-1-1.7-1.3-1.4-.6.5.7.1 1.2-1 1.2-1 0-3.2.2-5 .4-1.8.3-3.1 0-3-.6.1-.5-.4-1.2-1.2-1.5-.8-.3-1.1 0-.7.6.4.6-.2 1-1.3.9-1.5-.1-1.7-.4-.9-1.4.8-1 .7-1.2-.6-.7-1.7.7-2.3-1.1-.6-2.1.6-.4.3-1.7-.7-3.3-1.7-2.6-1.7-2.6 0-1.3 1.6 1.2 1.8 1.2 1.5 0-.2-.8-.7-1.7-1.2-2.1-.6-.4-.4-1.4.5-2.4.9-1.1.9-1.5.2-1-.8.4-1.3.2-1.3-.4 0-.6-.4-.9-.8-.6-.4.2-.9-.4-.9-1.5-.1-1 .3-1.9.8-1.9.6 0 .7.5.3 1.2-.4.7-.3.8.5.4 1.5-1 .4-2.6-1.7-2.6-1.5 0-1.5-.2-.2-1s1.2-1-.3-1c-1 0-1.5-.5-1.2-1 .4-.6 1-.8 1.5-.5.4.3.7-.3.5-1.2-.2-1-.4-2.2-.4-2.6-.1-.5-.5-.6-.9-.3-.5.3-.9-.1-.9-.9s.3-1.2.7-1c.4.2.7-.2.7-1s-.4-1.2-.8-1c-.4.3-.9-.1-1.2-.9-.3-.8.2-1.7 1.1-2.1 1.3-.5 1.4-.8.3-1.4-.8-.5-1-1.4-.6-2.1.6-.9.4-1.1-.4-.6-.7.5-1 1.5-.6 2.5.5 1.2.3 1.3-.5.5-.9-.9-.9-1.7-.1-3.2.7-1.2.7-2.3.2-2.6-.5-.4-1.2-.1-1.4.4-.3.6-.4.5-.3-.2.2-.7.9-1.3 1.6-1.3 1.7 0 2.4-2.1 1.1-3-.7-.4-.8.1-.4 1.2.4 1.4.3 1.5-.6.7-1.4-1.3-1.7-4.2-.6-6.7.4-1 .3-1.7-.5-1.7-.6 0-.8.4-.5 1 .3.5.1 1-.4 1-1.2 0-1.4-1.3-.4-2.4 1.1-1 1.2-3.7.2-3-.5.3-.9-.4-.9-1.5 0-1.2.6-2.1 1.3-2.1.8 0 .7-.4-.3-1-.8-.5-1.2-1-.7-1 .4 0-.2-1.8-1.3-4-1.4-2.7-1.6-3.8-.7-3.4.8.3 1.4-.2 1.4-1.1 0-.8-.2-1.3-.5-1.1-.8.8-3-1.9-2.4-2.9 1-1.6 1.1-3.6.1-2.9-1.3.8-1.1-1 .4-2.5 1-1.1 1-1.3 0-.7-.7.4-1.3.3-1.3-.3 0-.5.6-1.2 1.3-1.4.9-.4.8-.6-.2-.6-1.1-.1-1.1-.4 0-1.8.8-.9.9-1.4.3-1-.6.3-1.6-.5-2.3-2-1.1-2.3-1-2.5.3-1.3 2.7 2.1 1.8.2-1.1-2.4l-2.7-2.5 2.5.6c2.4.5 2.4.5.4-1.1-1.1-1-1.5-1.5-1-1.2.6.2 1.1-.4 1.1-1.4 0-1.4-.3-1.6-1.3-.8-1.8 1.5-1.6.3.3-1.6 1.4-1.5 1.4-1.6-.2-1.6-1.4 0-1.5-.2-.3-1.7.8-.9.9-1.4.3-1-.7.4-1.5 0-1.8-.9-.8-2.1-.8-2.4.5-2.4.5 0 .7.5.3 1.2-.5.7-.3.8.6.3 1-.6.7-1.2-1-2.5-1.7-1.2-1.9-1.9-1-2.5.9-.6.9-.9-.1-1.6-1.2-.7-1.2-1 0-2.1 1-1 1.2-1 .7-.1-.4.7-.2 1.3.4 1.3.7 0 1-.6.7-1.3-.2-.6-1.1-1.1-2-1.1-.9.1-1.3-.4-1-1.2.3-.8.9-1.1 1.4-.8.5.3.6-.2.3-1.1-.5-1.3-.9-1.3-2.3-.3-1.4 1.1-1.4 1.1-.4-.3.7-.9.9-2 .5-2.4-.4-.5-.2-.6.3-.2.6.3 1.2-.3 1.2-1.4.1-1.2-.5-1.9-1.5-1.9-1.5 0-1.5.2-.2 1 .9.6 1 1 .3 1-2 0-2.4-1.8-.6-2.9 1.2-.7 1.3-1 .4-1.1-1 0-1.1-.3-.2-1.4.9-1.1.9-1.6 0-2.2-.8-.5-.9-.3-.4.6.6.9.4 1.1-.5.5-1-.6-.9-1.1.5-2.2 1.8-1.2 1.3-1.8-1-1.3-.5.1-.7-.2-.3-.5.4-.4.3-1.7-.3-2.9-1-2-1-2 .5-.2.9 1.1 1.8 1.7 2.1 1.5.3-.3-.4-1.5-1.5-2.6-1-1.2-1.6-2.3-1.4-2.6 1-1-1.7-4.8-2.8-4.1-.7.4-.8.3-.4-.5.4-.6 1.2-.9 1.7-.6.5.4.9.1.9-.4 0-.6-.4-1.1-.9-1.1s-1.2-.7-1.5-1.6c-.6-1.4-.4-1.5.9-.4s1.6 1.1 1.3 0c-.2-.7.3-1.5 1.1-1.8.8-.2 1.1 0 .7.6-.7 1.1 1.2 1.1 3.2-.1.7-.5 1.2-.3 1.2.5 0 .9.3.9 1-.2.8-1.3 1-1.3 1-.1 0 1.1.4.9 1.5-.5.8-1 1.5-1.5 1.4-.9-.3 2.3.2 2.9 1.2 1.5.9-1.2 1-1 .6.8s-.3 2.1.8 1.2c.8-.7 1.5-.7 1.9-.1.4.5.2 1.3-.4 1.6-.8.5-.7 1.1.1 2.2 1 1.2 1 1.6-.2 2.4-1.3.8-.6 1.3 1.6 1 .6-.1.1.6-.9 1.4-1.2.9-1.5 1.5-.7 1.5 1.1 0 1.1.3 0 1.7-1 1.1-1 1.4-.1.9.6-.4 1.2-.3 1.2.3 0 .5-.5 1.3-1 1.6-.6.4-.8 1.1-.4 1.6.4.6 1.1.6 1.9-.1 1.1-.9 1.2-.7.8.9-.3 1.2-1 1.8-1.7 1.4-.7-.4-.6-.1.1.9.7.8.9 1.9.5 2.3-.4.5-.2.6.3.3.6-.3 1.7.1 2.5 1 1.3 1.4 1.2 1.5-.2 1-1.6-.7-3.5 1.9-2.3 3 .3.3.5 0 .5-.6 0-.7.4-1.2.8-1.2.5 0 .7 1.6.6 3.5-.2 2 0 3.3.5 3.1.4-.3.8.1.8.9s-.4 1.2-.9.9c-.4-.3-.8 0-.8.5 0 .6.4 1.1.8 1.1 1.4 0 3.3 4.8 2.1 5.5-.5.4-.8.1-.7-.6.2-.6-.4-1.4-1.2-1.6-1.3-.4-1.3-.3 0 .6.8.6 1.2 1.1.7 1.1-.4 0 0 1.5 1 3.2.9 1.8 1.8 3.6 1.9 4 .1.5.3 1.1.4 1.5.7 1.9.5 3.9-.5 4.5-.6.5-.4.8.5.8 1.3 0 1.3.1 0 1-1 .6-1.1 1-.3 1 .9 0 1 .7.3 2.5-.7 1.9-.6 2.7.8 3.4 1.6 1 1.6 1-.1 1.1-1 0-1.5.5-1.2 1 .4.6 1 .8 1.5.5.5-.3 1.2 0 1.6.6.4.7.3.9-.3.6-.6-.4-1.3.2-1.6 1.4-.5 1.7-.3 1.8 1.1.7 1.3-1.1 1.5-1 1 1-.4 1.2-.3 2 .2 1.7.4-.2.6 1.5.6 3.8-.1 2.4.5 5.5 1.6 7.4 1.2 2.3 1.4 3.4.6 3.9-.7.5-.8.3-.3-.6.6-.9.4-1.1-.5-.5-.9.6-1.1.4-.5-.5.5-.9.4-1.1-.4-.6-.9.6-.9 1.1-.1 2.1.7.8.9 1.8.6 2.3-.3.5.1.9.9.9s1.2-.4.9-.9c-.3-.4.3-.5 1.2-.1 1.1.4 1.3.8.6 1.1-.7.2-1 .8-.7 1.2.3.5 0 1.2-.6 1.6-.8.5-.9.3-.4-.6.5-.9.4-1.1-.4-.6-.9.6-.9 1.1 0 2.2.6.7.9 2 .6 2.8-.4 1.1-.1 1.3 1.1.9 1.5-.6 1.5-.5.3 1-.7.9-1 1.7-.5 1.7s.2.5-.6 1c-1.2.8-1 1 1 1.1 2.3 0 2.3.1.5.9-1.1.5-1.5.9-.9.9.7.1 1.4.8 1.8 1.6.3.8.2 1.4-.2 1.2-.4-.1-.8.2-.9.8-.1.5.4.9 1.1.8.6-.2 1.3.7 1.3 1.9.2 1.7 0 1.9-.7.8-.5-.8-1.2-1.2-1.5-.8-.3.3.1 1.3 1 2.1 1.8 1.9 2 3.1.3 2.1-.9-.6-.9-.3.1.9.7.9 1.1 2.4.7 3.2-.3 1 .1 1.5 1.2 1.5 1.5 0 1.5.2.2 1-1.2.8-1.2 1-.1 1 1.1 0 1.1.3 0 1.7-1.4 1.7-1.4 2 .3 4 .7.9.7 1.3-.1 1.3-.8 0-.6.6.4 1.6.9.9 1.4 2.3 1.1 3.1-.3.8-.1 1.1.4.8.6-.3 1-.1 1 .4 0 .6.5 1.1 1.1 1.1.5 0 .8-.4.5-.8-.3-.5.1-.9.9-.9s1.2.4.9.9c-.3.4 0 .8.5.8.6 0 1.1-.6 1.1-1.3 0-.9.3-.8.9.2.5.8 1.1.9 1.5.3.6-1.1 1.9-1 5 .3 1.2.5 2.1.3 2.7-.6.5-.8.9-.9.9-.3 0 .6.7 1.1 1.5 1.1s1.5-.5 1.5-1.1c0-.6.5-.4 1 .4s1 1.1 1 .6c0-.5.8-.2 1.7.5 1 .8 1.4.9 1 .2-.4-.6-.3-1.4.3-1.8.5-.3 1-.2 1 .3 0 1.2 5.3 1 6.2-.3.5-.6.8-.5.8.4 0 1 .3 1.1 1.4.2 1-.8 1.6-.9 2.1-.1.3.5 1.1 1 1.6 1 .6 0 .7-.5.3-1.2-.5-.7-.3-.8.7-.2 2.3 1.4 4.9 1.5 4.9.1 0-.9.3-.8.9.2.6.9 1 1 1.6.2.5-.9 1.1-.9 2.2.1 1.9 1.5 2.3 1.5 3.4-.4.7-1 .9-1 .9-.1 0 .7.5 1.3 1.1 1.3.5 0 .7-.6.3-1.3-.6-1-.4-1 .7 0 .7.7 1.7 1.3 2.2 1.3.4 0 .5-.6.1-1.3-.6-1-.4-1 .7 0 .7.7 1.8 1.3 2.4 1.3.5 0 .3-.5-.5-1-1.3-.8-1.3-1 .1-1 .9 0 2-.7 2.3-1.6.5-1.2.2-1.5-1.1-1-1.2.4-1 0 .5-1.2 2.3-1.8 2.3-1.9.5-3.7-1.6-1.7-1.6-1.8-.1-1.2 1 .3 2 .2 2.3-.3.4-.6.1-1-.4-1-.6 0-1.1-.5-1.1-1.1 0-.5.4-.8.9-.4.5.3 1.3 0 1.7-.6.4-.7.3-.9-.2-.6-.6.3-1-1.6-.9-4.8 0-3.5.3-5 1-4.5.7.6 1.1.2 1.1-1 0-1-.5-1.6-1.1-1.2-.5.3-.4-.2.4-1.1 1.1-1.4 1.1-1.7 0-1.7s-1.1-.2 0-.9c1.2-.8 1.2-1.2.2-2.5-1.1-1.3-1-1.7.4-2.2 1.2-.5 1.5-1.4 1-3.1-.4-1.9-.3-2.3.7-1.7 1.1.6 1.1.5 0-.8-1-1.3-1-1.8-.1-2.4.8-.4.9-.3.5.4-.5.8-.2 1 .9.6 1.1-.5 1.2-1 .5-1.8-.6-.9-.6-1.7.3-2.6.9-1 .9-1.1 0-.6-1.5.8-1.8-1-.4-1.8 1-.7.9-2.5-.2-4.4-.5-.7-.4-1.2.2-1.2.6 0 1.1-.7 1.1-1.6 0-.9-.5-1.2-1.2-.8-1 .5-1 .3 0-.7 1.1-1.2 1.4-1.2 2.2.1.7 1.2.9 1 .7-.7 0-1.2-.6-1.9-1.2-1.5-.5.3-.4-.1.2-1 .7-.8 1-1.8.6-2.2-.4-.4.1-.4 1.2 0 1.8.7 1.8.6.6-.9-.9-1.2-1-1.7-.2-1.7.7 0 .9-.5.6-1-.4-.6-1.2-.8-1.8-.4-.7.3-.4-.1.6-.9 1.8-1.5 1.8-1.6 0-2.6-1.7-1-1.7-1 0-1.1 1.7 0 1.7-.1.3-1.6-2-2-2.1-3-.1-1.4 1.3 1.1 1.4 1 .9-.5-.6-1.4-.4-1.6.7-1 1.1.7 1.1.5-.1-1-.8-1-1-1.6-.4-1.2.7.4 1.5 0 1.8-.9.4-1 .2-1.3-.7-.8-.8.5-.7.2.2-.9 1.3-1.6.8-2.2-1.3-1.8-.5.1-.4-.5.3-1.3.7-.9 1.1-2.2.8-3.1-.4-.8-.1-1.7.5-2.1.7-.4.8-.3.4.4-.5.8-.1 1 .9.5.9-.3 1.3-.9.8-1.2-.5-.3-1.3-1.5-1.6-2.5-.6-1.4-.5-1.6.5-.8s1.3 0 1.5-3.9c.1-3.4-.2-4.7-1-4.3-.7.3-.1-.4 1.3-1.6 1.4-1.2 1.8-2 1-1.7-1 .3-1.6-.2-1.6-1.3 0-1 .4-1.6.8-1.4.4.3.8 0 .8-.6s.4-.9.9-.5c.6.3.8-.6.5-2.1-.3-1.4.1-3.3.8-4.2 1.1-1.3 1.1-1.4-.1-.7-1.1.6-1.3.4-.8-1 .4-.9.2-2.4-.4-3.1-1-1.2-.8-1.3.7-.7 1.7.6 1.7.5.5-1-1-1.3-1-1.7-.1-1.7.7 0 1-.7.6-1.5-.3-.9.4-2.5 1.6-3.7 1.6-1.6 1.7-2 .5-1.5-.9.3-1.7.2-1.7-.3 0-.6 1-1 2.3-1 1.2 0 1.7-.4 1.2-.8-1.4-.9-1.7-5.5-.4-4.7.5.4.9.2.9-.4 0-.5-.6-1.1-1.2-1.4-.7-.2-.1-.4 1.4-.4 1.8 0 2.5.4 2.1 1.1-.3.6.4.2 1.6-.8 2-1.8 2.1-1.8 1.5-.2-.6 1.6-.4 1.7 1.4.7 1.7-.9 2.3-.8 3.2.6 1.1 1.7 1.1 1.7.6 0-.3-.9-.2-1.7.3-1.7 1.5 0 2 3.8.5 4.4-.9.4-1.1 1.3-.4 3.5.6 2.1.5 3.1-.3 3.5-.9.3-.8.5.1.5.6.1 1.2.6 1.2 1.2 0 .5-.6.7-1.2.3-1-.6-1-.4 0 .8 1 1.3 1 1.8.1 2.4-.8.4-.9.3-.5-.4.5-.8.1-1-1-.5-1.4.5-1.3.8.7 2 1.3.8 1.6 1.2.7.9-.9-.3-2.2.2-2.9 1-1 1.2-.9 1.3.7.8s1.6-.3-.3 1.4c-1.9 1.7-2 2.1-.7 2.6 1 .4 1.3.2.8-.6-.4-.7-.3-.8.5-.4.6.4.9 1.2.5 1.7-.3.5-.9.7-1.4.4-.4-.3-1 .2-1.4 1-.3.8-.1 1.7.5 2.1.6.4.5 1.2-.3 2.2-1 1.2-1 1.4 0 .8.6-.4 1.2-.2 1.2.3 0 .6-.6 1.1-1.2 1.1-.9 0-.8.3.2 1 1.2.7 1.2 1.2.2 2.2-1.6 1.6-1.6 3.1.1 2.2.9-.5.9-.3-.1.7-1.1 1.2-1.4 1.2-2.2-.1-.6-.9-1-1-1-.3 0 .6.4 1.4.9 1.8.6.3.4 1.9-.5 4-1.1 2.8-1.1 3.3-.1 2.9.8-.3 1.4.2 1.4 1.1 0 1-.6 1.4-1.6 1-.8-.3-1.2-.3-.8.1.4.4.2 1.3-.4 2-.7.8-.6 1.4.2 2 .8.4.9.3.5-.4-.5-.8-.1-1 1-.5 1.5.5 1.5.7-.2 1.7-2.1 1.2-3 3.6-1.3 3.6.5 0 .7.5.4 1-.4.6-1 .8-1.5.5-.5-.3-.5.7-.1 2.2.4 1.6.6 3.4.4 4-.3.7.1 1.3.9 1.3.9.1.7.4-.4 1-1 .6-1.5 1.9-1.3 3 .2 1.2 0 1.8-.6 1.5-.5-.4-.6-1.1-.3-1.7.4-.6.2-.8-.4-.5-.5.4-.8 1.7-.4 2.9.4 1.6.2 1.9-.9 1.3-1.2-.8-1.2-.6 0 .8 1.1 1.4 1.1 2 0 3.4-.8.9-.9 1.4-.3 1 .7-.4 1.5 0 1.8.9.3.8.2 1.2-.3.9-.5-.3-1.2-.1-1.6.5-.3.5-.1 1 .6 1 .8 0 .5.7-.6 2-1.6 1.8-1.6 2-.2 2.6 1.3.5 1.4.9.4 1.9-.7.7-1.6 1-2.2.7-.5-.2-.5.1.2.8 1.5 1.6.6 4-1.6 4-.9 0-1.2.3-.6.8 1.4 1 1.9 4.6.6 3.7-.7-.3-.8 0-.5.9.3.9 1.1 1.3 1.8 1 .6-.3.2.2-.8 1-1.5 1.2-1.6 1.6-.5 1.6 1.2 0 1.2.2-.1 1-1 .6-1.1 1-.3 1 1.7 0 1.1 3.6-1 6-1.1 1.3-1.2 2-.4 2.4.7.2.4.5-.5.5-2.2.1-3.2 1.7-1.7 2.7.8.4.9.3.5-.4s-.1-1.2.8-1.2c2 0 2 1.4.1 3-.8.7-1.2 1.7-.9 2.2.4.6.1 1.4-.6 1.8-.8.5-.7.9.5 1.3 1 .5 1.4.3.9-.5-.4-.7-.3-.8.5-.4 1.4.9.3 2.9-1.3 2.3-1.3-.5-1.5 2-.3 4 .5.7-.1 2.1-1.2 3.2-1.4 1.4-1.6 2.1-.6 2.4.7.3 1.8 0 2.5-.6.9-.9 1.1-.9.7-.1-.4.7 0 1.4.8 1.8.8.3 1.4.2 1.3-.2-.2-1.3 1.4-4.2 2.4-4.2.5 0 .6.6.3 1.2-.4.7.5-.2 2-2s3.3-3.1 4.1-2.8c.7.3 1.6.1 2-.5.4-.6 1.1-.6 2 .2.9.7 1.4.8 1.3.3-.1-.5-.1-1.6.1-2.4.1-1.1.4-.9 1 .5.8 1.8.9 1.8.9-.5.1-1.8.4-2.1 1-1.1.5.7 1.4 1 2 .7.6-.4.9-1.2.6-1.7-.3-.5.1-.6.9-.3.9.3 1.3 1.1.9 1.7-.3.6-.1.7.5.3.7-.4 1.2-1.5 1.2-2.4 0-1.3.2-1.3 1.6.4.8 1 1.2 1.3.8.5-.5-1.1-.3-1.3 1.1-.7 1.6.6 1.6.4.4-1.1-.7-1-.9-1.5-.5-1.1.5.4 1.6.3 2.3-.4 1.1-.9 1.7-.9 2.4.3s.9 1.2.9-.1c0-1.2.2-1.3.9-.1.7 1.1.9 1.1 1.3 0 .4-1.2.8-1.2 2-.1 1.3 1 1.8 1 3-.1.7-.8 2.1-1.3 3-1.1 1.1.1 1.5-.3 1.1-1.2-.3-.8.1-1.4.8-1.5.8 0 2.4-.2 3.7-.3 1.3-.2 2.5.1 2.8.6.3.5 1.2.4 1.9-.2 1-.8 1.5-.8 2 .1.6.8 1 .7 1.6-.2.7-1.1.9-1.1.9.1 0 1.3.1 1.3 1 0 .8-1.2 1-1.2 1-.1 0 1.1.3 1.1 1.5.1 1.1-.9 1.5-.9 1.5-.1 0 .7.5.9 1 .6.6-.4.8-1 .5-1.5-.3-.4.2-1 1-1.4.8-.3 1.5-1.2 1.5-2.1 0-.8.8-1.5 1.8-1.5 1.4 0 1.5-.2.2-1-1.3-.9-.8-1.4 1.1-1.2.4.1.5-.7.2-1.8s-1-1.7-1.7-1.3c-.6.4-.5-.1.3-1 1.5-1.8 2.6-2.3 1.6-.7-1.3 2.2.4.8 1.9-1.4 1.1-1.8 1.3-2.7.4-3.2-.7-.5-.8-.3-.3.6.5.9.4 1.1-.4.6-.9-.6-.9-1.1-.1-2.1.6-.7.7-2.1.3-3-.4-1.2-.3-1.6.4-1.2.7.5 1-.2.8-1.8-.1-1.6.3-2.5 1.1-2.5s1.4-.5 1.4-1.1c0-.5-.4-.8-.8-.5-.5.3-.9-.1-.9-1 0-1 .7-1.2 2.1-.8 1.2.3 1.7.2 1.1-.3-1.6-1.3-1.9-4.6-.3-3.8 1 .6 1.1.5.1-.6-.7-.7-1.3-1.7-1.3-2.2 0-.4.6-.5 1.3-.1 1 .6 1 .4 0-.7-1.6-1.6-1.7-3.3-.2-2.3.6.3.3-.6-.7-2.2-1.4-2.2-1.5-2.6-.3-1.7 1.3 1.1 1.5 1 1.4-.5-.1-.9-.7-2.8-1.5-4.2-1.2-2.2-1.1-2.4.2-1.3 1.2 1 1.4 1 1.3-.5-.1-.9-.7-2.8-1.5-4.2-1.2-2.2-1.1-2.4.2-1.3 1.2 1 1.4 1 1.3-.5-.1-.9-.7-2.8-1.5-4.2-1.1-2.1-1.1-2.3.1-1.3 1.2.9 1.4.6 1.4-1.7.1-1.6-.3-2.6-.7-2.4-1.3.8-.9-1.1.5-2.5.7-.9.7-1.1.1-.8-.7.4-1.5 0-1.8-.9-.4-1-.2-1.3.7-.8.8.5.8.2-.2-.9-.7-.9-1.8-1.4-2.4-1-.6.3-.7.1-.3-.5.4-.6 1.2-1 1.9-.8.7.1.9.1.4-.1-.4-.3-.4-1-.1-1.5.5-.7.2-.8-.6-.3-1 .6-1.2.4-.7-.8.3-.9.3-1.6-.1-1.6-1.9.3-2.9-.2-2.9-1.6 0-.9.4-1.1 1.1-.6.8.6 1.1 0 1.1-1.9.1-1.6-.3-2.6-.9-2.3-.5.4-.7-.1-.3-1 .3-.9.1-1.9-.5-2.3-.7-.5-.8-.2-.3.6.5.9.4 1.1-.4.6-.6-.4-.8-1.3-.4-1.9 1.1-1.8 1.2-3.8.2-3.1-.5.3-.6 1.1-.2 1.7.4.7 0 .6-1-.2-1.8-1.5-2.3-2.6-.7-1.6.6.3 1-.1 1-.9 0-.9-.8-1.6-1.7-1.7-1 0-1.3-.3-.7-.5 1.6-.7.4-6.6-1.2-6-1.6.6-2.8-1-1.4-1.9.5-.3 1-1.1 1-1.6 0-.6-.4-.8-.8-.5-.5.3-1.5-.6-2.2-1.9-.7-1.4-1.8-2.5-2.4-2.5-.6 0-.4-.5.4-1 1.3-.9 1.3-1.1 0-2-.8-.5-1-1-.5-1 .6 0-.3-.9-2-2-1.6-1.1-2.5-2-2-2 .6 0 1.5.3 2.1.7.5.5.1.1-.8-.9-1-.9-1.8-2.7-1.8-4 0-1.8-.2-2-1-.8s-1 1.1-1-.6c0-1.2-.7-2.5-1.6-2.8-.8-.3-1.3-1-.9-1.5.3-.5-.5-1.1-1.7-1.3-1.8-.2-2.2-.8-2-2.7.3-1.9 0-2.2-1.3-1.8-.9.4-1.4.3-1.1-.2.3-.5-.1-1.1-.9-1.5-.9-.3-1.2-1.2-.8-2.2.5-1.4.2-1.6-1.8-1.1-2.3.6-2.4.6-.4-1 1.9-1.5 1.9-1.5-.8-1.1-2.2.4-2.5.3-1.6-.8.9-1.1.8-1.4 0-1.4-.7 0-.9-.5-.5-1.3.5-.8.2-.8-.9.2-1.7 1.3-2.3.6-1.8-2.2 0-.4-.6-.7-1.5-.7s-1.2-.5-.8-1.3c.5-.8.2-.7-.9.2-1.6 1.2-1.7 1.2-1.1-.5.4-1 .4-1.6-.1-1.2-.4.4-1.5-.1-2.4-1-.9-1-1.2-1.2-.7-.5.6 1 .5 1.2-.7.7-.9-.3-2.2-1.9-2.9-3.5-.7-1.6-1.7-2.9-2.1-2.9-.5 0-.5.6-.1 1.2.4.7-.5.2-1.9-1.1-1.5-1.3-2.4-2.8-2-3.4.4-.6.1-.7-.6-.3-.9.6-.8 1.2.4 2.6 1.2 1.4 1.3 2 .4 2.6-.8.4-1 .3-.5-.5.4-.6 0-1.4-.8-1.7-.9-.3-1.6-1.4-1.6-2.3 0-1.4-.2-1.4-1-.1-.7 1.1-1 1.1-1 .2 0-.8-.5-1-1.2-.6-1 .6-1 .5-.1-.8 1.5-1.8.7-2.9-1.5-2.1-.9.4-1.3.2-.9-.4.3-.5 0-1-.8-1s-1.2.3-1 .7c.2.4-.3.7-1.1.7s-1.3-.6-1-1.3c.3-.8 0-1.6-.6-2-.7-.4-.8-.3-.4.4s.3 1.2-.2 1.2-1.4-1-2.1-2.3c-.6-1.2-.9-1.4-.7-.4.5 1.4.2 1.6-1.3.8-1-.6-2.2-.7-2.6-.3-.5.4-.5.1-.1-.6s1.2-.9 1.8-.6c.7.4.8.2.4-.4-.5-.9-1.3-.9-2.8-.1-1.8 1-2 .9-1.5-.5.4-.9.1-1.5-.6-1.3-.7.1-1.1-.4-.9-1.1.1-.8-.2-1.1-.8-.7-.8.5-.7 1.2.2 2.3 1.2 1.4 1 1.4-1 .3-1.2-.7-2-1.5-1.8-1.9.3-.5-.5-.9-1.7-.9-1.7-.2-1.8 0-.7.7s1 .9-.7.7c-1.2 0-1.9-.5-1.7-.9.3-.4-.2-.8-1.1-.8-1 0-1.3-.5-.9-1.3.5-.8.2-.8-.9.2-1.5 1.2-1.7 1.1-1.7-.4 0-1-.5-1.5-1.4-1.2-.7.3-1.9 0-2.5-.6-.8-.8-1.1-.8-1.1.1 0 .7-.5 1.2-1.1 1.2-.5 0-.7-.6-.3-1.3.6-1 .4-1-.7 0-1.6 1.6-3.3 1.7-2.3.1.5-.7.3-.8-.7-.2-2.7 1.7-4 1.3-3.4-.9.4-1.2.3-1.7-.2-1.1-1.2 1.6-4.2 2.4-4.8 1.4-.3-.5-1.2-.7-2-.3-.8.3-1.5 0-1.5-.7 0-.6.5-.8 1-.5.6.3 1 .2 1-.3 0-1.3-5.2-1.2-6.9.2-1.2.9-1.3.8-.7-.2.6-1.1-.1-1.3-3.5-1.1-2.4.2-4.7.8-5.1 1.4-.5.6-.8.6-.8-.3 0-.6-.5-1.2-1.1-1.2-.5 0-.7.5-.3 1.2.5.7.3.8-.7.2-1.8-1.1-8-1.3-7.3-.2zm2.1 2c.2 1.7 0 1.9-.7.8-.5-.8-.6-1.8-.4-2.2.8-1.2 1-1 1.1 1.4zM265 38c0 .5-.2 1-.4 1-.3 0-.8-.5-1.1-1-.3-.6-.1-1 .4-1 .6 0 1.1.4 1.1 1zm-120 71.4c0 .3-.4.8-1 1.1-.5.3-1 .1-1-.4 0-.6.5-1.1 1-1.1.6 0 1 .2 1 .4zm161.4 17.2c.3.8.2 1.2-.4.9-.6-.3-1-1-1-1.6 0-1.4.7-1.1 1.4.7zm-69.8.6c.3.4-.1.5-1 .4-.8-.1-1.8-.5-2.2-.8-.3-.4.1-.5 1-.4.8.1 1.8.5 2.2.8zm-.4 1.5c2.2.3 2.8.1 2.3-.8-.5-.8-.4-1 .3-.5.6.4.8 1.4.5 2.2-.5 1.3-.1 1.5 1.7.9 1.5-.5 2-.3 1.6.3-1.3 2.2 1.6 2.3 3.6.2 1.1-1.2 2.3-1.9 2.6-1.5.4.3 0 1-.8 1.5-1.1.7-1 .9.7.8 1.5-.2 2-.8 1.8-2.4-.1-1.5.2-2.1 1.1-1.7.8.3 1.1 1 .8 1.7-.3.6.2.2 1-.8 1.1-1.4 1.6-1.5 1.6-.6 0 1.1.3 1.1 1.2.2.8-.8 1.5-.9 2.5-.1.9.9 1.7.8 2.9-.1 1.2-1.1 1.5-1.1 1.2.1-.2.9.5 1.4 1.9 1.3 1.3-.1 2 .2 1.8.6-.3.4.2 1 1 1.4.8.3 1.5.1 1.5-.4s.7-.6 1.7-.3c1.1.4 1.4.3.9-.5-.4-.7-.2-1.2.3-1.2.6 0 1.1.4 1.1 1 0 .5.5 1 1.1 1 .5 0 .8-.3.6-.8-.3-.4.1-1.3.9-2 1-.9 1.4-.9 1.4-.1s.5.7 1.7-.2c.9-.8 1.4-.9 1-.3-.4.7 0 1.5.9 1.8.8.3 1.2.2.9-.4-.3-.6-.2-1 .3-1s1.2.9 1.5 2c.4 1.4 1 1.8 2.3 1.3 1.3-.5 1.5-.3.9.8-.5.8 0 .6 1.2-.4 1.5-1.3 2.3-1.5 2.8-.7s1 .9 1.8.1c.7-.7 1.5-.7 2.6.2 1.1.9 1.3.9.8 0-.4-.6-.3-1.4.3-1.8.5-.3 1-.1 1 .4 0 .6.5 1.1 1.1 1.1.5 0 .7-.5.3-1.2-.4-.6-.3-.8.3-.5.6.4 1.3 1.6 1.6 2.7.5 1.8.3 1.9-1.1.8-1.3-1.1-1.4-1.1-.7.1 1.4 2.5 1.4 6 0 5.5-1-.4-1.2.1-.8 1.5.3 1.3.1 2.1-.6 2.1s-.9-.5-.5-1.2c.5-.7.3-.8-.6-.3-1 .6-.9 1.1.5 2.2 1.7 1.2 1.3 1.8-.9 1.4-.5-.1-.4.5.4 1.3 1 1.3 1 1.6-.1 1.7-1.1 0-1.1.2-.1.6 1 .4 1 .8 0 2.1-1 1.2-1 1.4 0 .8.6-.4 1.2-.3 1.2.1 0 .5-.6 1.5-1.2 2.2-.8.9-.9 1.2-.1.7.7-.4.9.1.6 1.4-.3 1.1-1 2-1.5 2s-.6-.5-.2-1.2c.5-.7.3-.8-.5-.3-.9.5-1 1-.2 1.8 1.4 1.4 1.4 2.8 0 2.5-1.3-.3-2 4-.8 4.7.4.3.6-.6.5-2-.2-1.3 0-2.2.4-2 1.6 1 .3 9.5-1.5 10.9-1.3.9-1.5 1.5-.6 2 .6.4.9 1.2.5 1.7-.3.5-.9.7-1.3.5-.4-.3-.8.1-.8.9s.4 1.2.8.9c.4-.2 1 0 1.4.6.3.5-.1 1-.9 1-1.8 0-1.9.2-1 2.4.3.9 1.1 1.3 1.7.9.6-.4.7-.1.3.6-.5.7-1.4 1-2.2.7-.7-.3-1.6 0-2 .6-.4.6-.3.8.4.4.6-.3 1.3-.2 1.7.4.4.6 1.1.7 1.7.4.7-.4.8-.2.4.4-.4.6-1.3.9-2.2.5-1.2-.4-1.3-.1-.5 2s.7 2.5-.4 2c-.8-.3-1.2-1-.8-1.6.4-.6.1-.7-.6-.2-.9.5-1 1-.2 1.8.7.7.7 1.5-.2 2.6-1 1.2-.9 1.4.7.7 2-.7 2-.7 0 1.5-1.9 2.2-1.9 2.2.1 1.6 2-.7 2-.7.1.8-1.2.9-1.5 1.5-.7 1.5 1.1 0 1.1.3.1 1.5-.6.8-.9 1.9-.5 2.5.3.5.1 1-.6 1-.9 0-.9.3 0 1.4.9 1.1.9 1.6 0 2.2-.8.4-.9.3-.5-.4s.2-1.2-.3-1.2c-.6 0-1.1 1.1-1.1 2.4 0 1.4-.5 2.8-1 3.1-.7.5-.8 1.1-.1 1.9.6.7.6 1.7.1 2.6-.5.9-.5 1.9.1 2.6.7.8.6 1.5-.2 1.9-.8.6-.7 1 .2 1.6 1.1.7 1.1.9.1.9-.7 0-1 .4-.7 1 .3.5.1 1-.6 1-.8 0-.8.4.1 1.5 1.1 1.3 1 1.4-.5.9-1.1-.5-1.6-.4-1.2.3.7 1 .2 1.2-5.8 1.5-2.8.2-4.2-.2-4.7-1.2-.5-1.2-.7-1.2-.7.2-.1 1.1-.6 1.5-1.6 1.2-.8-.4-2.2-.1-2.9.5-1.1.9-1.6.9-2.2 0-.4-.7-.3-.9.4-.5.6.3 1.3.2 1.7-.4.3-.5-.3-1-1.4-1-1.2 0-2.1.4-2.1.9 0 .6-.9.8-2 .6-1.1-.2-2.2 0-2.5.6-.4.5-1.1.9-1.8.9-.6 0-.2-.7.9-1.6 1.9-1.5 1.9-1.6-.1-.8-3.7 1.3-13.6.9-14.6-.7-.7-1.2-.9-1.1-.9.3 0 .9-.5 2-1.2 2.4-.6.4-.8.3-.5-.3.4-.6 0-1.6-.7-2.2-1.1-.9-1.6-.9-2.2 0-.5.8-.3 1 .7.4 1.1-.6 1.2-.5.1.6-1 1.1-1.6 1.1-3.2.1-1-.6-2.6-.9-3.5-.6-.8.3-1.5.1-1.5-.6 0-.6.5-.8 1-.5.6.3 1-.1 1-1s-.3-1.4-.8-1.1c-.4.2-1.3-.7-1.9-2.1-1.2-2.4-1.1-2.4.5-1 1.6 1.5 1.8 1.5 1.8-.3 0-1-.4-1.7-.7-1.4-.4.2-1 0-1.4-.6-.3-.5-.1-1 .5-1s.8-.5.5-1c-.4-.6-1.2-.7-1.8-.3-.7.4-.6 0 .2-1 .7-.9.9-1.7.3-1.7-.5 0-1.3-.7-1.6-1.6-.6-1.5-.4-1.5 1-.3 1.6 1.3 1.6 1.2.6-.8-.9-1.6-.9-2.3.1-2.6.6-.3.3-.6-.7-.6-2-.1-2-.1 0-1.7 1-.8 1.3-1.2.5-.8-1.1.5-1.3.3-.7-1.1.5-1.4.4-1.5-.7-.7-1 .8-1.3.6-1.3-.8 0-1 .3-1.7.7-1.4.4.2.6-.3.5-1.3-.2-.9-.9-1.9-1.7-2.2-.8-.3-1.4-2-1.5-3.8 0-1.8.3-3 .7-2.8.6.4.5-5.9-.1-7.5-.2-.3-.2-.8-.1-1.3 0-.4-.6-.7-1.4-.7-1.3 0-1.4-.4-.5-2 .9-1.7.8-2-1.2-2.1-1.8-.1-1.9-.2-.5-.6 1.8-.5 1.8-.5 0-2.6-1-1.1-1.2-1.7-.5-1.3.6.4 1.2.3 1.2-.1 0-.5-.6-1.5-1.2-2.2-.7-.8-.8-1.1-.3-.8.7.3 1.1-.8 1.1-2.8 0-1.8-.4-3.1-.8-2.9-.4.3-.8 0-.8-.6s-.5-.8-1.2-.4-.8.3-.4-.4c.4-.6 1.2-1 1.9-.8.7.1.9.1.4-.1-.4-.3-.5-.9-.2-1.4.4-.5 0-.6-.7-.4-.9.4-1.4-.2-1.4-1.4 0-1.6.3-1.8 1.5-.8s1.3.9.2-1.1c-.6-1.2-.9-2.7-.5-3.3.3-.6 0-.9-.8-.7-1.4.3-1.8-.3-1.8-2.5 0-.8.4-.7 1.1.3.9 1.2.9 1.1.4-.5-.4-1.1-.8-2.5-.8-3.2 0-.7-.4-1-.8-.8-.4.3-.9-.2-1.2-1-.4-1-.1-1.2 1.1-.8 1.5.5 1.4.3-.2-1.6-1.3-1.4-1.5-2-.5-1.6 1 .4 1.4-.3 1.4-2.4.1-1.6-.3-2.7-.7-2.5-.4.3-.8 0-.8-.6s-.5-.8-1.2-.4c-.8.5-.7 0 .2-1.1 1.4-1.7 1.3-1.8-.2-1.2-1.3.4-1.5.2-1.1-1 .5-1.2.3-1.4-.7-.8-.9.5-1.1.4-.6-.4.6-.9 1.1-.9 2.4.1 1.3 1.1 1.4 1.1.4-.7-.9-1.8-.7-2.1.9-2.2 1-.1 1.9.3 1.9.8 0 .6-.4.7-1 .4-.6-.3-.7.1-.3 1 .3.9.9 1.2 1.2.7.6-1 2.6-1.5 4.9-1.3.7 0 1 .5.7 1.1-1.1 1.8 2.9-.2 4.6-2.2 1.3-1.7 1.6-1.7 1.6-.4 0 .9-.4 1.6-.9 1.6-.4 0-.8.5-.8 1 0 .6.8.5 1.9-.2 1.1-.7 1.7-1.6 1.5-2-.3-.4 0-.8.6-.8s.8-.5.4-1.2c-.5-.7-.3-.8.5-.4.7.5 2.6 1 4.3 1.3zm8.8 2.3c0 .5-.5 1-1.1 1-.5 0-.7-.5-.4-1 .3-.6.8-1 1.1-1 .2 0 .4.4.4 1zm74.1 13.3c-1 .9-1.1.8-.5-.6.3-1 .9-1.5 1.2-1.2.3.3 0 1.1-.7 1.8zm-99.4 24.2c0 .8-.4 1.2-.9.9-.4-.3-.8-.9-.8-1.5 0-.5.4-.9.8-.9.5 0 .9.7.9 1.5zm-88.1 5.5c0 1.2-.4 1.6-.9 1.1s-.6-1.4-.3-2c1-1.5 1.2-1.4 1.2.9zm1.4 3.4c0 1.1-1.9 1.5-2.5.6-.3-.5.1-1 .9-1 .9 0 1.6.2 1.6.4zm90 8.1c.7.9.8 1.5.2 1.5-.5 0-1.2-.7-1.6-1.5-.3-.8-.4-1.5-.2-1.5s.9.7 1.6 1.5zm69.5 15.3c-.3.3-1.1 0-1.8-.7-.9-1-.8-1.1.6-.5 1 .3 1.5.9 1.2 1.2zm-66.8-.2c-.3.3-1.2.4-1.9.1-.8-.3-.5-.6.6-.6 1.1-.1 1.7.2 1.3.5zM347 218.4c0 .3-.4.8-1 1.1-.5.3-1 .1-1-.4 0-.6.5-1.1 1-1.1.6 0 1 .2 1 .4zm-40 1.6c0 .5-.2 1-.4 1-.3 0-.8-.5-1.1-1-.3-.6-.1-1 .4-1 .6 0 1.1.4 1.1 1zm-156.3 12.5c0 .8-.4 1.2-.9.9-.5-.3-.6-1-.3-1.5.9-1.3 1.2-1.1 1.2.6zm5.8 6.6c-.4.5-1.2.9-1.8.8-.9 0-.8-.2.1-.6.6-.2.9-1 .6-1.5-.4-.7-.2-.8.5-.4.6.4.9 1.2.6 1.7zm31.7 30.3c.7-.4.8-.2.4.5-.9 1.4-3.6-.3-3.6-2.3 0-.6.5-.3 1.1.7.6.9 1.5 1.4 2.1 1.1z"/><path d="M261 130c0 .5.5 1 1.1 1 .5 0 .7-.5.4-1-.3-.6-.8-1-1.1-1-.2 0-.4.4-.4 1zM263.6 131.7c-.6 1.4-.5 1.5.5.6.7-.7 1-1.5.7-1.8-.3-.3-.9.2-1.2 1.2zM291.7 166.1c.7.7 1.5 1 1.8.7.3-.3-.2-.9-1.2-1.2-1.4-.6-1.5-.5-.6.5zM291.6 169.2c.3.5 1 .6 1.5.3 1.3-.9 1.1-1.2-.6-1.2-.8 0-1.2.4-.9.9zM245.5 228c-.2.3.5.6 1.5.7 1.1.1 2.2-.2 2.4-.5.3-.4-.4-.8-1.5-.8s-2.2.3-2.4.6zM270.8 36.7c.6.2.9 1 .6 1.5-.4.7-.2.8.5.4 1.3-.9.5-2.6-1.2-2.5-.9 0-.8.2.1.6zM147.6 98.6c-.5 1.4-.4 1.5.9.4 1.7-1.4 1.9-2 .6-2-.5 0-1.2.7-1.5 1.6zM370.1 107.2c.5 1 1.1 1.8 1.2 1.8.2 0 .3-.8.3-1.8s-.6-1.9-1.3-1.9c-.8 0-.9.6-.2 1.9zM208.2 147c.7 1.1 1.7 2 2.2 2 .5 0 .1-.9-.9-2s-2-2-2.2-2c-.2 0 .2.9.9 2zM210.4 150.8c.3.5 0 1.3-.6 1.5-.8.3-.6.6.5.6 1.9.1 2.3-1.4.5-2.5-.6-.4-.8-.3-.4.4zM302.7 152.3c-.3.8.1 1.4.8 1.4.7 0 1.1-.6.8-1.4-.3-.7-.6-1.3-.8-1.3-.2 0-.5.6-.8 1.3zM306.3 207.7c-.3 1-.8 2.2-1.1 2.8-.3.5.1.4.8-.2 1.3-1.2 2.3-4.3 1.4-4.3-.3 0-.7.8-1.1 1.7zM353.5 217c-.3.5-.1 1 .4 1 .6 0 1.1-.5 1.1-1 0-.6-.2-1-.4-1-.3 0-.8.4-1.1 1zM365.9 223.7c-.1.5-.1 1.2 0 1.7s-.7.6-1.9.3c-1.1-.3-1.8-.1-1.4.4.7 1.2-.7 1.1-2.6-.1-1-.6-2.2-.5-3.6.5-1.4.9-2.5 1-3.1.4-1.1-1.1-4.3-.2-4.3 1.2 0 .4-.7.5-1.7.2-1.2-.5-1.4-.3-.8.7.5.8.4 1.1-.3.6-.5-.3-1.2-.1-1.4.6-.3.9-.6.9-1.2 0-.4-.7-.2-1.2.3-1.2.6 0 1.1-.5 1.1-1.2 0-.9-.3-.9-1.2 0-.9.9-1.5.9-2.5 0-1-.8-1.7-.8-2.6.1-.9 1-.8 1.1.8.5 1.7-.7 1.8-.5.8.8-.7.8-1 1.7-.7 2 .3.3 0 .9-.7 1.4-.7.4-1 .3-.6-.3s0-1.3-.8-1.7c-.8-.3-1.9.3-2.5 1.2-.8 1.5-1.1 1.5-2 .2-.8-1.2-1-1.2-1-.1 0 .9-.8 1.2-2.5.9-2-.4-2.3-.2-1.5 1.3.8 1.4.6 1.7-1.5 1.4-2-.2-2.3.1-1.5 1.1.9 1 .7 1.1-.9.7-1.2-.3-1.8-1-1.4-1.6.3-.6.1-.7-.5-.3-.7.4-1.2 1.4-1.2 2.2 0 .8-.5 1.4-1.1 1.4-.5 0-.8-.4-.5-.9.7-1.1-2.1-.8-3.1.4-.4.4-.2.5.5.1.6-.4 1.2-.3 1.2.3 0 1.5-1.8 2.3-2.5 1.1-.5-.8-1.1-.8-1.9-.1-.7.6-1.6.8-2 .4-.4-.4-.4.1 0 1.2.6 1.5.4 1.7-1.1 1.2-1.6-.7-1.6-.5-.4 1 .7 1 .9 1.5.5 1.1-.5-.4-1.5-.3-2.2.3-.8.7-1.4.6-2-.2-.5-.8-.3-.9.6-.4.9.5 1.1.4.6-.3-.9-1.5-1.1-1.5-2.7.5-1.2 1.4-1.2 1.6.1.9.8-.4.6-.1-.4.8-1 .8-2.3 1.3-2.8 1-.4-.3-1.1.3-1.5 1.3-.3 1-2.5 3.5-4.7 5.5-3.4 3.1-4.3 3.5-6.1 2.6-1.8-1-1.9-1-.6.5.9 1.2 1 1.7.2 1.7-.7 0-1 .4-.6.9.3.6-.4.8-1.6.6-1.2-.2-1.9-.2-1.6.2.3.3-.4 1.4-1.6 2.5l-2.2 1.9 2.5-1.1c2.1-.9 2.2-.9.9.2-.9.7-1.4 2-1.1 2.8.4 1.1.1 1-1.2-.3-2.2-2.1-2.7-2.2-1.9 0 .5 1.2.3 1.4-.8.8-1.2-.8-1.2-.6 0 .8.8 1 1.1 2 .7 2.4-.3.3-.6.1-.6-.5 0-.7-.5-1.2-1.1-1.2-.5 0-.7.5-.4 1.1.4.6 0 .9-1 .7-1-.2-1.9.3-2.1 1-.1.7 0 .8.3.2.2-.5.9-.7 1.5-.4.5.3 0 1.3-1.1 2.1-1.2.8-2.6 1.1-3.2.7-.8-.5-.8-.1 0 1.4s.8 2.3-.1 2.8c-.7.5-.8.3-.3-.6.6-.9.4-1.1-.4-.6-.7.5-1 1.5-.7 2.3.3.8.1 1.1-.4.8-.9-.6-1.4.7-1.1 2.7 0 .4-.5.5-1.3.2s-1.7 0-2.2.7c-.4.7-.3 1 .4.5.6-.3 1.3-.2 1.6.3.4.5-.6 1.4-2.1 1.9-1.6.6-2.2 1.1-1.4 1.1 1.1.1 1 .5-.5 1.6-1.4 1.1-1.5 1.4-.4 1.5 1.3 0 1.3.2.1.9-2 1.3-2.3 4.1-.5 4.8 1.1.4 1.2.8.3 2-1 1.1-.8 1.5.9 2 2.1.5 2.7 1.5 2.3 3.7-.1.5.4 1.3 1.1 1.7 1 .7 1 .9.1.9-.7 0-1.3.5-1.3 1.1 0 .5.4.8 1 .4.5-.3.9.5.8 1.7-.2 4 .2 4.9 1.4 4.2.8-.5.9-.2.5.9-.4 1.2-.1 1.7 1.1 1.7 1.5 0 1.5.2.2 1-1.1.7-1.1 1-.2 1 .9 0 1 .5.2 1.9-.8 1.6-.6 2 .8 2.4 1.6.4 1.6.5-.1.6-1 0-1.5.6-1.2 1.1.4.6 1.1.8 1.6.5.5-.4.9-.1.9.4 0 .6-.8 1.1-1.7 1.1-1.5 0-1.6.2-.3.9.8.6 1.8.7 2.4.4.5-.3.6-.1.2.6-.4.6-1.1.9-1.6.6-.5-.3-1.2-.1-1.5.5-.4.6-.1.9.7.8.7-.2 1.2.5 1.2 1.4-.1 1 .2 1.5.7 1.2.8-.5 1.4 4.2 1 7.5-.2.8.2 1 1.1.5 1-.6 1-.4.2.7-1.2 1.6-1.2 2.9-.1 4.6.4.6.3 1.5-.3 1.8-.7.4-.7 1.1-.2 1.8 1.7 2.2 2.2 4.6.8 4.1-1.3-.5-1.6 3-.3 4.2 1.2 1.2.8 2.6-.5 1.8-.9-.5-.9-.2.1.9 1.2 1.5.9 2.1-1 1.9-.3-.1-.6.5-.6 1.3s.4 1.2.8.9c.4-.2 1 0 1.4.6.3.5-.1 1-1.1 1-1.4 0-1.4.3-.4 1.5 1.1 1.3 1 1.4-.1 1-1-.4-1.5.2-1.6 1.7-.2 1.7 0 1.9.6.9.7-1 .9-.6.8 1.2-.2 2.1-.5 2.3-1.6 1.4-1.1-.9-1.3-.9-.8 0 .4.6.1 1.4-.5 1.6-1 .4-1 .6 0 .6.6.1 1.2.8 1.2 1.7 0 .9-.5 1.2-1.2.8-.9-.5-.9-.2.1.9 1.1 1.4 1.1 1.7 0 1.7s-1.1.2 0 .9c1.2.8 1.1 1.3-1 3-1.9 1.6-2.1 2.2-1 3 .9.6 1 1 .2 1.2-.7.3-1.3 1.1-1.4 1.9-.2.8-.7 2.1-1.1 2.9-.6 1-.5 1.2.2.7.8-.5 1.1 0 .8 1.6-.3 1.3-.5 2.9-.5 3.5-.1.7-.6 1.3-1.2 1.3-.5 0-.7-.5-.3-1.2.4-.6.3-.8-.4-.4-.6.3-.9 1.5-.7 2.6.3 1.3-.2 2-1.2 2-1.3 0-1.4.2-.2 1.7 1 1.1 1 1.4.2.9-2-1.1-1.5.5.5 2 1.5 1.2 1.4 1.2-.8.7-2.4-.5-2.5-.5-.5 1.1l2 1.6-2-.6c-1.9-.7-2-.6-.1.8 1.2.9 1.6 2 1.1 2.8-.6.9-.4 1.1.5.5 1-.6 1.2-.4.6 1-.5 1.5-.4 1.6.8.6 1.1-.9 1.6-.9 2.2 0 .4.7.3.9-.3.6-.6-.4-1.3 0-1.6.8-.4.9-.1 1.2.7.9.8-.3 1.7 0 2.2.7.5.8.3 1-.7.5-.8-.4-.6-.1.4.7.9.8 1.7 2 1.7 2.6 0 .7.5.9 1 .6.9-.5 1.5 1.6 1.1 3.8-.1.5.7.6 1.7.3 1.2-.4 1.9-.1 1.9.8s-.4 1.3-.9 1c-.4-.3-.8 0-.8.5 0 .6 1 1.1 2.3 1.1 1.8 0 1.9.2.7 1.1-1.1.8-.8.9 1.5.4 2.9-.6 2.9-.6 1 1-1.1.9-1.4 1.4-.7 1 .7-.4 1.2 0 1.2.9s.5 1.6 1.1 1.6c.5 0 .7-.5.4-1.1-.4-.6.2-.5 1.4.2 1.1.8 1.6 1.6 1.1 1.9-.5.3-.5 1.2.1 2 .8 1.3 1 1.3 1.9 0 .5-.8 1-1 1-.4 0 .5-.6 1.6-1.2 2.3-1.1 1-1 1.2.2.9.8-.2 1.9-.8 2.3-1.3.4-.6.5.2.1 1.6-.7 3.2 1 4.6 2.6 2.2 1-1.6 1.1-1.6.7.4-.4 1.9-.2 2.1 1.2 1.3 1.3-.6 1.8-.5 1.8.5 0 .8-.5 1.2-1 .8-.5-.3-.4.4.3 1.6.6 1.2 1.5 1.9 2.1 1.6.5-.4.9-.2.9.4 0 .6.7.8 1.5.5.8-.4 1.7.1 2.1 1 .3.9 1.4 1.6 2.4 1.6s2.2.9 2.5 2c.3 1.1 1.1 2 1.6 2 .6 0 .8-.4.4-.9-.3-.5-.1-1.3.5-1.6.6-.4.9-.1.8.7-.2.7.2 1.2.8 1.1.7-.1 2 .8 3 2l1.9 2.2-2.5-2-2.5-2 1.9 2.2c1.5 1.8 2.2 2 3.3 1.2.7-.7 1.6-.9 2-.5.3.3 0 .6-.8.6-1.2 0-1.2.2 0 .9.8.5 2.1.7 2.9.3 1.1-.4 1.3-.2.7.8-.6 1-.4 1.2.8.7 1.2-.4 1.4-.2 1 1.1-.6 1.5-.5 1.5 1 .3 1.1-.9 1.7-1 1.7-.2 0 .6.5 1.1 1.1 1.1.5 0 .7-.6.3-1.3-.4-.6.2-.4 1.4.6 1.3 1.2 1.8 2.5 1.4 3.5-.5 1.5-.4 1.5 1.1.3 1.4-1.1 1.7-1.1 1.7 0s.2 1.1 1-.1c.7-1.2 1.2-1 2.9.9 1.2 1.3 2.1 2 2.1 1.5 0-.6-.5-1.5-1.2-2.2-.9-.9-.9-1.2-.1-1.2.7 0 1.4.8 1.7 1.8.3.9 1.6 2.3 2.8 3.1l2.3 1.4-2-2.4-2-2.3 2.8 1.7c1.5 1 2.7 1.3 2.7.7 0-.6.5-.8 1-.5.6.4.8 1 .6 1.4-.3.3.4.7 1.4.7 1.4 0 1.6-.3.8-1.3s-.7-1.2.6-.7c.9.3 1.6 1 1.6 1.5s.5.9 1.1.9c.5 0 .7-.5.3-1.1-.4-.7.1-.7 1.5.1 1.6.8 2.6.8 3.5.1.9-.8 1.3-.7 1.3.4 0 .8-.5 1.1-1.1.8-.6-.4-.5.1.3 1 .7.9 1.9 1.7 2.5 1.7.6 0 .4-.5-.4-1-1.1-.7-1.1-1-.2-1 .7 0 1.1-.4.8-.8-.3-.5.1-.9.8-.9.7 0 1.3.7 1.2 1.6-.1 1.4 1.6 1.6 12.2 1.7 6.7 0 12.2-.4 12.2-.8 0-.5-.4-.7-.9-.3-.5.3-1.3 0-1.7-.6-.4-.8-.3-.9.4-.5s1.2.2 1.2-.4c0-.7.5-.6 1.4.2.8.7 1.2 1.5 1.1 1.8-.2.3.5.6 1.5.6s1.6-.4 1.4-.8c-.3-.4.6-1.2 1.8-1.9 2-1.1 2.2-1.1 1 .3-1 1.3-1 1.8-.1 2.4.8.5.9.3.5-.5-.5-.8-.3-1.2.5-1 2.9.3 3.9-.2 3.9-1.9 0-1.4.2-1.5 1-.2s1.4.8 1.2-1.1c-.2-1.2 3.3-.4 4.6 1.1 1.2 1.3 1.3 1.3.8-.4-.6-1.7-.5-1.7 1.1-.5 1.5 1.2 1.6 1.2.9-.5-.7-1.9-.6-1.9 1.3-.2 2 1.8 2 1.8 1.6-.3-.2-1.2 0-1.9.5-1.6.4.3 1-.1 1.3-.7.3-1 .7-1 2 .1 1 .7 1.7.9 1.7.3 0-.5.7-1.3 1.6-1.6 1.2-.5 1.4-.3.8.7-.5.7-.1.4.9-.6 1.2-1.4 1.7-1.5 1.8-.6 0 .8.4.4 1-.9.5-1.3 1.3-2.1 1.8-1.7.5.3 1.3 0 1.7-.6.5-.9 1.1-.6 2.2.7 1.3 1.6 1.4 1.7.9.1-.4-.9-.2-1.8.3-1.8.6-.1 1.4-.2 1.9-.3.5 0 1.3-.5 1.8-1s.2-.6-.7-.1c-1.2.7-1.3.6-.2-.6s1.4-1.2 2.2.1c.7 1.1 1 1.1 1 .2 0-.7.4-1.1.9-.8 1 .6 5.4-3.8 4.6-4.6-.3-.3.5-.4 1.9-.3 1.7.2 2.3-.1 2-1-.7-1.6 1.2-2.9 2.1-1.5.4.6 1.8-.1 3.6-1.7 1.6-1.6 3.4-2.9 3.9-2.9 2.3-.3 2.4-.5.6-1.9-1.5-1.2-.8-2.3.7-1.3.2.2 1.2-.4 2.2-1.2 1.5-1.2 1.7-1.2 1-.1-.6 1-.4 1.2.4.7.7-.5 1-1.5.7-2.3-.3-.8-.1-1.1.4-.8.6.3 1.3-.1 1.6-.9.3-.9 1.2-1.6 2-1.6s1.4-.5 1.4-1.1c0-.5.5-.7 1-.4.6.3 1-.1 1-1s-.4-1.3-1-1c-.5.3-1 .4-1 0 0-.3 1.2-1 2.6-1.5 1.5-.6 2.2-1.4 1.8-2.2-.5-.8-.2-.9 1-.5 1.4.5 1.7.3 1.2-.8-.3-.8-.1-1.5.5-1.5s.7-.6.3-1.3c-.5-.7 0-.6 1.1.3 1.4 1.1 1.7 1.1 1.1.1-.5-.8-.3-1.7.5-2.2 1.2-.8 1.2-1.1-.1-1.9-1.1-.8-.8-.9 1.3-.6 1.7.3 2.5.1 2.1-.6-.4-.6 0-1.4.7-1.9 1-.6 1.1-.9.2-.9-.7 0-1.3-.4-1.3-1 0-.5.6-.7 1.4-.4.8.3 1.7 0 2.2-.7.4-.8.3-1-.4-.5-.7.4-1.2.2-1.2-.5s.8-.9 2.1-.6c1.6.4 1.9.3 1.1-.5-1.2-1.2 1.1-6.8 2.8-6.8.5 0 .6-.8.3-1.7-.5-1.3-.3-1.5 1.2-.9 1.1.4 1.6.4 1.2 0-.4-.4-.1-1.4.6-2.2.8-1.1.8-1.4 0-.9-.6.4-1.5.2-1.9-.4-.4-.8-.3-.9.4-.5s1.2.2 1.2-.4c0-.6.3-.9.8-.6.4.2 1.2-.7 1.9-2 .6-1.3.7-2.2.3-1.9-.5.3-1.1.1-1.5-.5-.3-.5.1-1 1.1-1 1.4 0 1.5-.2.3-1.7-1.3-1.5-1.2-1.5 1-.4 1.8 1 2.2 1 1.6.1-.4-.7-.1-1.7.6-2.2 1-.6.6-.7-1.1-.3-2.2.5-2.3.4-.9-.7.9-.7 1.4-1.9 1.1-2.7-.3-.8 0-1.1.6-.7.7.4.9-.1.7-1.4-.3-1.3.2-2 1.3-2.1.9 0 1.2-.3.6-.5-.7-.3-1-1.4-.7-2.4.3-1.2 1-1.7 1.7-1.3.6.4.5-.1-.3-1-.9-1.1-1-1.7-.2-1.7.6 0 1.1-.5 1.1-1.1 0-.5-.4-.7-1-.4-.5.3-1 .1-1-.4 0-.6.7-1.1 1.6-1.1.8 0 1.2-.5.9-1-.4-.6-1.2-.8-1.8-.4-.7.3-.3-.2.7-1 1.1-.9 1.5-1.6 1-1.6-.6 0-1.1-.7-1.1-1.5s.4-1.2.9-.9c1.1.7 1-.3-.4-2.9-.9-1.9-.9-2 .3-1 1.2.9 1.4.6 1.4-2 0-1.8.5-3.1 1-3 .6.1 1-2.6 1.1-6.3 0-5.8-.4-6.8-2.7-6.6-.3.1-.6-.5-.6-1.3 0-1 .5-1.1 1.7-.5 1.3.7 1.6.5 1.5-.8-.3-2.8-1.7-5.2-2.5-4.7-.5.3-1.2 0-1.6-.6-.4-.8-.3-.9.4-.5s1.2.1 1.2-.6c.1-.8.6-.6 1.5.6.8 1.1 1.5 1.5 1.5.9 0-1.1-1.7-2.6-3.2-2.9-.5-.1-1.1-.2-1.5-.3-.5-.1-.2-.5.6-1 .8-.6 1-1.4.5-2.2-1.3-2.1-1.4-4-.2-3.3.7.4.8.2.4-.4-.4-.7-.2-1.2.5-1.2s.4-.6-.7-1.4c-1.1-.8-1.9-2.6-1.9-4.3 0-1.5-.5-2.7-1.1-2.6-.6.1-1.1-.5-1.1-1.3 0-1.7.9-1.8 2.6-.2 1 1.1 1.1 1 .6-.5-.4-.9-1.2-1.7-1.7-1.7-.6 0-.8-.7-.5-1.4.4-1.1.1-1.3-1.1-.9-1.5.6-1.6.5-.2-1.2.9-1.1 1-1.6.3-1.1-1.5.9-1.7-.6-.3-2 .7-.7.4-1.7-.9-3.1-1.5-1.6-1.7-2.3-.8-3.3.9-1 .9-1.1 0-.6-1.9 1-3.9-.4-2.2-1.5 1-.6 1.1-.9.2-.9-.7 0-1.3-.7-1.3-1.6 0-.9.5-1.2 1.3-.8.8.5.8.2-.2-.9-.7-.9-2-1.7-2.8-1.7-.8 0-1.1-.5-.8-1 .3-.6 0-1-.7-1-.9 0-.9-.3.2-1 1.3-.8 1.3-1-.2-1-1.1 0-1.5-.5-1.2-1.4.3-.8 0-1.7-.7-2.2-.7-.4-1-.3-.6.2.3.5-.3 1-1.3 1-1.7 0-1.7-.2-.1-2.5.9-1.4 1.1-2.2.5-1.8-.7.4-1.5 0-1.8-.9-.3-.8-.2-1.2.4-.9.6.3 1 .4 1 0 0-.3-1.2-1-2.6-1.5-2.1-.8-2.4-1.3-1.5-2.4.9-1.1.5-1.9-1.9-4-1.8-1.4-3.6-2.6-4.1-2.6-.5 0-.9-.9-.9-2.1 0-1.4-.5-1.9-1.4-1.6-1.1.4-1.3.1-.9-1s.2-1.4-.5-.9c-.7.4-1.2.1-1.2-.9 0-.8-.7-1.8-1.6-2.2-.8-.3-1.3-1.2-1-2 .3-.8.1-1.1-.4-.8-1.2.7-5.3-1.9-4.4-2.8.4-.4-.1-.9-1-1.3-.9-.3-1.4-.9-1.1-1.4.2-.4-.7-.6-2-.4-2.1.2-2.3-.1-1.6-1.5 1.3-2.4-2.3-4.8-4.5-3-1.2 1-1.3.9-.8-.6.6-1.4.4-1.6-.7-1-1.2.8-1.2.6 0-.8.8-1 1.1-2 .7-2.4-.3-.3-.6-.1-.6.5s-.7.9-1.7.5c-1.2-.5-1.4-.3-.8.7.5.9.4 1.1-.4.6-.6-.4-.8-1.2-.5-1.8.5-.7.1-.9-.9-.5-1.1.4-1.4.2-1.1-.7.3-.7-.2-1.6-1.1-2-1-.4-1.4-.2-.9.6.4.7.3.8-.4.4s-1.2-1.3-1.2-2.1c0-.7-.7-1.6-1.6-1.9-1.4-.5-1.5-.4-.5.8.9 1.1.9 1.6 0 2.2-.8.4-.9.3-.5-.4s.2-1.2-.3-1.2c-.6 0-1.1-.9-1.1-2.1 0-1.1-.5-1.7-1-1.4-.6.4-.8 1.2-.4 1.8.3.7-.1.4-.9-.6-1.5-1.8-3.2-2.4-2.2-.7.3.5.4 1 .1 1-.3 0-1.3-1.2-2.1-2.8-1-1.6-1.4-1.9-1.1-.7.6 1.8.4 1.8-1.3-.3-1.8-2.1-3.8-3.1-2.7-1.4.4.7-1.9.8-4.3.3-.2-.1.2-.8.9-1.6 1.1-1.3.8-1.5-1.4-1.5-1.9 0-2.5-.4-2-1.3.5-.8.2-.8-.9.2-1.4 1.1-1.7 1.1-1.7 0 0-.8-.6-.5-1.5.7-1.3 1.6-1.4 1.6-.9.1.5-1.3.1-1.7-2-1.7-1.7 0-2.6-.5-2.6-1.6s-.5-1.4-1.7-1c-.9.4-2 .1-2.5-.6-.6-1-.8-1-.8-.1 0 .7-.5 1.3-1.1 1.3-.6 0-.9-.7-.6-1.4.4-1 .1-1.3-.8-.9-.8.3-1.2 1-.8 1.7.4.6-.1.5-1-.3-.9-.7-2.4-1.1-3.2-.7-.9.3-1.5 0-1.5-1 0-.8-.5-1.2-1-.9-.6.4-.7 1.1-.4 1.7.4.6 0 .6-1.3-.1-1.1-.6-2.3-.7-2.7-.4-.3.4-1.5.7-2.6.8-1.6.1-1.8-.1-.7-1.4.9-1.2.9-1.3 0-.7-.8.4-1.3.2-1.3-.6s-.5-.6-1.1.4c-1.1 2-2.9 2.4-2.9.7 0-.5.5-.7 1.2-.3.7.5.8.3.4-.5-.6-.9-1.3-.8-2.8.6-2 1.8-2.1 1.8-1.3-.7.6-2.3.6-2.4-.7-.7-1.5 2-8.1 3.1-7.4 1.3.2-.6.9-1 1.5-.8.7.1 1-.2.6-.8-.4-.6-1.5-.4-3.1.6-2.2 1.5-2.9 1.3-2.5-.9 0-.4-.1-.7-.4-.7-.3 0-.6.3-.6.7zm-6.5 3.1c.3.5-.1.9-.9.9s-1.2-.4-.9-.9c.3-.4.7-.8.9-.8.2 0 .6.4.9.8zm-7 1c.3.5-.1.9-.9.9s-1.2-.4-.9-.9c.3-.4.7-.8.9-.8.2 0 .6.4.9.8zm-38.1 13.7c-.3.9-.8 1.4-1 1.1-.3-.3-.2-.9.2-1.5.9-1.6 1.5-1.3.8.4zm-9.3 6.9c0 .3-.4.8-1 1.1-.5.3-1 .1-1-.4 0-.6.5-1.1 1-1.1.6 0 1 .2 1 .4zm149.5 4.6c.3.5.1 1-.4 1-.6 0-1.1-.5-1.1-1 0-.6.2-1 .4-1 .3 0 .8.4 1.1 1zm-72 7c-.3.5 0 1 .8 1s1.7.9 2 2.1c.5 1.7.3 1.8-1 .7-1.5-1.2-1.5-1.1-.4.9.8 1.6.8 2.3.1 2.3-.6 0-.4.7.4 1.6 2.1 2 2 2.5-.1 1.7-1.5-.6-1.6-.5-.3.9.8.9 1.9 1.4 2.3 1.1.5-.3.3.5-.4 1.8-1.1 2.1-1.1 2.3.3 1.1 1.3-1 1.8-1 2.4-.1.4.8.3.9-.4.5s-1.2-.1-1.2.9.5 1.3 1.3.9c.8-.5.7-.2-.2 1-1.1 1.3-1.2 1.9-.2 2.9 1 .9 1.1.8.5-.8-.5-1.7-.4-1.6 1.1.3 1.1 1.5 1.5 3.5 1.3 5.3-.3 2.2-.1 2.8.9 2.5.7-.3 1.2-.2 1.2.2-.4 2.7.3 4.2 2.1 4.2 1.1 0 2 .5 2 1.1 0 .5-.4.8-.9.5-1.4-.9-.7 2.8.8 4 .8.6 1.1 1.6.7 2.2-.3.6-.1 1.4.5 1.8.8.4.9.3.5-.4s-.1-1.2.8-1.2 1.3.7 1.1 2c-.2 1.3.2 2 1.1 2 .8 0 1.3.4 1 .9-.3.4.3 1.9 1.4 3.1 1.1 1.2 2.2 3.1 2.5 4.1.4 1.1 1.4 1.9 2.3 2 1.4 0 1.3.2-.3.9-1.1.5-1.4.9-.7.9.6.1 1.2 1.1 1.2 2.3 0 1.9.2 2 1 .8.9-1.3 1-1.3 1.1 0 .1.8.1 1.9 0 2.4s.5.4 1.3-.3c1.3-1.1 1.4-.9.7 1.6-.7 2.2-.5 3 .5 3.1.8.1 2 .3 2.8.4.8.1 1.2.8.9 1.6-.5 1.1-.7 1.1-1.4 0-.6-.9-.9-.9-.9-.1 0 .6.5 1.5 1.1 1.8.6.4.8 1.3.5 2.1-.3.8 0 1.1 1 .7.9-.3 1.4.2 1.4 1.6 0 1.2.5 2.1 1.1 2.1.5 0 .7.4.4 1-.3.5-.1 1 .5 1s.8.5.5 1c-.4.6-1.2.8-1.8.4-.7-.3.2.8 2 2.5 2.1 1.9 2.8 3.2 2 3.5-.9.5-.8.8.2 1.2 1.1.5 1.1.8 0 1.5-1 .6-1.1.9-.1.9.6 0 1.2.7 1.2 1.6 0 .9-.5 1.3-1.2.9s-.3.3 1 1.4c3 2.6 2.9 2.5 1.2 4.6-.9 1.1-1 1.6-.2 1.1s1.2-.1 1.2 1.1c0 1.1.6 2.5 1.3 3.2.6.8.8 1.1.2.9-.5-.3-1.6 0-2.3.8-.7.8-.8 1.4-.2 1.4.5 0 1 .7 1 1.5s-.5 1.5-1.1 1.5c-.6 0-.3.7.5 1.6 2 2 2.1 3 .1 1.4-1.3-1.1-1.4-1-.9.5.6 1.4.4 1.6-.7 1.1-.8-.4-.5 0 .5.8 1.9 1.6 1.9 1.6-.5 1.6-2 0-2.1.2-.9 1.1 1.2.9 1.3 1.2.1 1.6-1.1.4-1.1.7 0 1.3 1 .7 1 1.1 0 2.4-.7.8-.9 2.1-.5 2.8.6 1 .4 1-.9 0-1.4-1.2-1.6-1.1-1.2.7.2 1.2 0 2.1-.6 2.1-.5 0-.9 1-.9 2.2 0 1.9-.2 2-1 .8-1.1-1.7-1.3-1-.4 1.4.3.9 1.1 1.3 1.7.9.6-.3.7-.1.3.5-.3.6-1.4.9-2.4.7-1.4-.2-1.7.4-1.7 3.1.2 3.3.1 3.3-1.7 1.7-1.5-1.4-1.9-1.4-1.6-.3.2.8.8 1.8 1.3 2.2.6.4.2.8-.8.8-1.3 0-1.7.5-1.2 1.9.4 1.2 0 2.1-1.1 2.5-1.4.5-1.5.4-.4-.9.8-.9.8-1.5.2-1.5-.6 0-1.4 1-1.8 2.2-.4 1.3-1.2 2.6-1.8 3.1-.8.5-.6 1 .4 1.8 1.2.8 1 .9-.7.4s-2.3-.2-2.3 1c0 1-.5 1.3-1.2.9-.7-.5-.9-.2-.5.9.4 1.2.2 1.4-1 1-1.1-.4-1.4-.2-.9.5.4.7.1 1.2-.7 1.2-.8 0-1.8.7-2.1 1.6-.3.9-1.1 1.2-1.8.8-.9-.5-.8-.2.1.9 1.2 1.5 1.2 1.7-.4 1.1-1.3-.5-1.6-.4-1.1.4.4.7.2 1.2-.4 1.2-.6 0-.8.5-.4 1.2.5.9.2.9-.9-.1-1.7-1.3-2.2-.7-1.9 2.1.1.3-1.2.1-2.9-.5-2-.8-2.5-1.3-1.5-1.5 1.9-.4 2.1-1.8.4-2.8-.7-.5-.8-.2-.3.7.5.8.4 1 0 .6-1.2-1-1.5-3.8-.4-3.1.5.3.9 0 .9-.5 0-.6-.8-1.1-1.7-1.1-1.1 0-1.4-.3-.7-.8 1.1-.7 1.6-4.4.4-3.7-.3.2-1.2 0-2-.6-.8-.5-1-.9-.4-.9s1.1-.7 1.1-1.5c0-.9-.6-1.4-1.3-1.1-.8.3-1.1 0-.7-.9.3-.9-.4-1.8-1.8-2.4-1.3-.5-1.9-1-1.2-1 .6-.1 1-.9.8-1.9-.2-.9-.4-2-.4-2.5-.1-.4-1-.7-2.2-.7-1.1 0-1.7-.5-1.4-1 .3-.6 0-1-.7-1-.9 0-.9-.3.2-1 1.3-.8 1.2-1-.4-1s-1.7-.3-.8-1.2c.7-.7 1.2-1.7 1.2-2.3 0-.5-.4-.3-1 .5-1.1 1.7-1.9 1.1-2.5-1.8-.2-1.2-.9-3-1.5-3.9-1.1-1.7-1.1-1.7-.6 0 .3 1.1.2 1.5-.4 1.2-.6-.3-1-1.3-1-2.1 0-.9-.5-1.2-1.2-.8-.6.4-.8.3-.4-.4.3-.6 0-1.7-.8-2.5s-1.2-1.8-.8-2.3c.4-.5-.2-.2-1.3.6s-1.7 1.1-1.3.6c.4-.5.2-1.8-.4-3-1-1.9-1-2 .6-.7 1.4 1.2 1.6 1.2 1-.3-.3-.9-1.5-1.6-2.6-1.6-1 0-1.6-.5-1.3-1 .3-.6.1-1-.6-1s-.9-.3-.6-.7c.4-.3.1-1.3-.6-2.1-.8-1.1-.8-1.4 0-.9.6.4 1.5.2 1.9-.5.4-.7.4-1-.1-.6-1 .9-5.5-4.5-5.5-6.7 0-1-.5-1.4-1.2-.9-1 .6-1 .4 0-.7 1.5-1.6 1.6-3.3.1-2.3-.8.5-1-.1-.7-2 .3-1.4.1-2.9-.5-3.3-.6-.4-.7-.1-.2.7.6.9.4 1.1-.4.6-.7-.5-1-1.5-.7-2.3.4-.9.1-2.1-.5-2.9-.7-.9-.7-1.8.1-3.3.9-1.8.8-2-.7-1.4-1.6.6-1.6.5-.4-1 1.2-1.5 1.1-2-.5-3.9-1.1-1.2-1.4-1.9-.9-1.6.6.4 1.9 0 3-.9 1.4-1 1.5-1.4.5-1.3-2.8.4-4.1 0-3.5-1 .4-.6 1.1-.7 1.7-.4.6.4.9.1.6-.7-.3-.8-1.4-1.3-2.4-1.1-1.8.2-1.8.2-.1-.8.9-.6 2.3-.8 3-.5.6.4.4 0-.6-.8-1.8-1.5-1.8-1.6 0-4.4 1.6-2.5 1.6-2.7 0-1.4-2 1.6-2.2.4-.3-2.1.7-1 1.7-1.4 2.1-1 .5.4.5.1.1-.6-.6-1-1.1-1-2.1-.2s-1.5.8-2.1-.1c-.5-.8-.3-.9.6-.4 1 .6 1.2.4.7-.9-.5-1.1-.3-1.5.4-1 .7.4 1 .1.7-.7-.3-.8.2-2 1.1-2.7 1.4-1.2 1.4-1.3-.4-.8-1.8.6-1.7.4.3-1.2 1.3-1 2-2.1 1.5-2.5-.4-.4-.8-1.4-.9-2.3-.2-1.2 0-1.3 1.2-.3 1.3 1 1.3.8.4-1.6-.9-2.4-.9-2.6.4-1.6 1.1.9 1.6.9 2.2 0 .4-.8.3-.9-.4-.5-.8.5-1.2 0-1.2-1.3 0-1.2.5-2.1 1.2-2.1.6 0 .8-.3.5-.7-.4-.3.1-1.2 1.1-1.9.9-.7 1.7-2.5 1.8-4.1 0-1.7.5-2.7 1.3-2.5.7.1 1-.2.7-.7-.3-.5.1-1.2 1-1.5 1.3-.5 1.4-.9.4-2.1-1-1.2-.9-1.6.4-2.1.9-.3 1.3-1.1.9-1.7-.4-.7 0-.8 1.3-.3 1.5.6 1.6.5.7-.5-1-1-.9-1.6.4-3.1.9-1 1.3-1.8.9-1.8s-.4-.5 0-1.1c.4-.8.9-.7 1.5.2.6 1 .9.8.9-.7 0-1.2.8-2.5 1.7-2.8 1.5-.6 1.5-.8.3-1.6-.8-.6-1-1-.4-1 .5 0 1.9-.7 3-1.6 1-.8 1.3-1.2.5-.8-1 .5-1.2.3-.7-.5.5-.7 1.4-1 2.2-.7.7.3 1.6.1 1.9-.5.4-.5.3-.9-.2-.8-.4.1-1.7 0-2.8-.1-1.7-.2-1.6-.3.5-.9 1.4-.4 2.4-1.3 2.3-1.9-.2-.7.2-1.2.8-1.2.6 0 .8-.7.5-1.6-.3-.8-.2-1.2.3-.9.5.3 1.2.1 1.6-.5.3-.5.8-1 1.1-1 .3 0 .2.4-.1 1zm96.1 18.2l1.9 2.3-2.2-1.9c-1.6-1.3-2.3-1.5-2.3-.6 0 .7-.3 1.1-.6.7-.5-.5.3-2.7 1-2.7.2 0 1.1 1 2.2 2.2zM266 293.5c0 .2-.6.8-1.3 1.4-1 .8-1.4.7-1.4-.2 0-.8.6-1.4 1.4-1.4.7 0 1.3.1 1.3.2zm92.7 3c0 .8-.4 1.2-.9.9-.5-.3-.6-1-.3-1.5.9-1.3 1.2-1.1 1.2.6zm136.2 12.8c.8 1 .7 1.4-.2 1.4-.8 0-1.4-.6-1.4-1.4 0-.7.1-1.3.2-1.3.2 0 .8.6 1.4 1.3zm-224.3 1.2c-.1.8-.5 1.7-.8 2.1-.5.4-.4-1.6.1-3.4.3-.9.9.1.7 1.3zm72.2 8.3c-.1 1.5.2 3.4.7 4.2.8 1.3.6 1.3-1 0-1.7-1.4-1.8-1.4-.6.7 1 2 .9 2.3-.6 2.4-1.7.1-1.7.2 0 .6.9.2 1.7.9 1.7 1.4 0 .6-.4.8-.9.4-.9-.5-.5 4.5.5 5.4.2.2-.1 1-.6 1.6-.8.9-.6 1.4.6 1.9 1.3.5 1.4.9.4 2.1-.7.8-.9 1.5-.5 1.5s.1.8-.6 1.7c-1.2 1.4-1.2 1.6 0 .8 1.1-.6 1.3-.4.8.7-.3.9 0 2.1.6 2.8.9.9.9 1.1.1.7-.7-.4-1.5 0-1.8.9-.3.8-.2 1.2.4.9.9-.5 1.2.1.9 2.1 0 .4.5 1.1 1.3 1.5 1 .7 1 1.2.1 2.7-.9 1.6-.8 2.3.5 3.6 1.6 1.6 1.6 1.7-.3 1-1.9-.8-1.9-.7-.2 1 .9 1 1.4 2.2 1.1 2.8-.4.7-.2.8.5.4.6-.4.8-1.2.5-1.8-.4-.6-.2-.8.4-.4.6.3.9 1.5.7 2.6-.2 1.1.1 2 .7 2s.5.7-.3 1.7c-1 1.1-1 1.4-.1.9.6-.4 1.2-.3 1.2.1 0 .5-.6 1.5-1.2 2.3-1.1 1.2-1 1.2.5 0 1.6-1.2 1.9-1.1 2.4.8.3 1.3 1 1.9 1.7 1.5.6-.4.4.2-.4 1.2s-1 1.6-.4 1.2c.7-.4 1.4.2 1.7 1.4.3 1.2 1 1.8 1.6 1.4.7-.4.8 0 .4 1.1-.5 1.3-.3 1.5.8.9 1.2-.8 1.2-.6 0 .8-.8 1-1.1 2-.7 2.4.3.3.6.1.6-.6 0-2 3.1 1.6 3.3 3.8 0 1.1.4 1.8.8 1.5.4-.2 1 0 1.4.6.4.6 1 .8 1.5.5.5-.3 1.1-.1 1.5.4.3.6-.6.8-2.2.5-2.8-.4-2.8-.4-.5.9 1.2.7 1.9 1.7 1.5 2.2-.4.5-.1.4.7-.2 1.3-1 1.6-.8 1.6.8 0 1-.5 1.9-1 1.9s-.6.3-.3.6c.4.4 1.3.1 2.1-.5 1.1-.9 1.6-.9 2.2 0 .4.7.3.9-.3.6-.6-.4-1.3 0-1.6.8-.4.9-.1 1.2.7.9.7-.3 1.6.2 1.9 1 .4.9.1 1.4-.6 1.2-.7-.1-.9-.1-.4.1.4.3.5.8.2 1.2-.2.5.6.6 1.9.4 1.3-.3 2.7 0 3 .6.5.7.1.9-.8.5-2.1-.8-2 .5.2 2.3 1.1 1 1.2 1.2.2.8-.8-.4-.6.1.4.9 1.1.9 2.3 1.6 2.8 1.6.4 0 .8.5.8 1.1 0 .8-.5.7-1.5-.1-1.3-1.1-1.4-1-.9.4.3.9 1 1.6 1.5 1.6s.7 1.3.5 2.9c-.2 2.1 0 2.8 1 2.4.8-.3 1.4 0 1.4.7 0 .6.5.8 1.2.4.7-.5.8-.3.4.5-.5.7-1.5 1-2.5.7-1-.4-.8.1.7 1.3 2.4 2 3 3.7 1 2.5-.9-.5-.9-.2.1.9.7.9 1.2 1.8 1 1.8-2 .6-5.9.6-5.9 0 0-.4-.7-1.6-1.6-2.7-1.4-1.8-1.4-1.8-.3.6 1.2 2.4 1.1 2.5-.8.7-1.1-.9-2.3-1.4-2.6-1-.6.6-1.1-2-.8-4 .1-.5-.2-.6-.7-.3-.4.2-1.4.1-2.2-.4-.9-.5-1.9-.5-2.6.1-.8.7-1.4.6-1.9-.1-.3-.5-1.8-1-3.2-1-1.4 0-3.4-1-4.4-2.2-1.1-1.1-1.9-1.7-1.9-1.2 0 .6.6 1.6 1.3 2.4.6.8-.1.4-1.7-1-1.6-1.4-2.6-1.9-2.2-1.3 1 1.8-.4 1.6-1.8-.1-.6-.8-1.8-1.6-2.6-1.8-.8-.2-2.1-1-3-1.8-.8-.9-1.2-1.1-.8-.5.5.7.2 1.2-.7 1.2-.8 0-1.2-.3-1-.7.2-.3-.1-1.2-.6-2-.8-1.2-1.2-1.2-1.6-.3-.2.7-.9 1.3-1.5 1.3s-.4-.8.5-1.8c1.5-1.6 1.5-1.9.2-1.9-.8 0-1.5.5-1.5 1 0 .6-.3.7-.6.4-.4-.4-.1-1.3.6-2.2 1.1-1.3 1-1.4-.5-.8-1.5.5-1.7.3-1.2-1.2.6-1.5.5-1.6-.8-.5-1.3 1-1.5.9-1.5-.9 0-1.1-.6-2.1-1.4-2.1-.7 0-2-.8-2.7-1.8-1.3-1.5-1.2-1.6.4-.3 1.5 1.2 1.7 1.2 1.1-.3-.3-.9-1-1.6-1.4-1.6-.4 0-1-1-1.4-2.3-.7-3-.8-3-2.3-4.6-1.2-1.1-1.1-1.7.1-3.6 1.4-2.1 1.4-2.4-.2-3.7-1.6-1.2-1.6-1.1-.2.6 1.4 1.8 1.4 1.8-.7.6-2-1.3-2-1.5-.5-2.6 1.4-1 1.5-1.5.4-2.6s-1.2-1-.6.7c.7 1.7.6 1.8-.8.5-1.3-1.2-1.4-1.7-.5-2.5 1.7-1.4 1.2-7.3-.8-8.7-.6-.5-.6-.8.2-.8 1.3 0 1.2-1.7-.2-4-.8-1.3-.7-1.3 1 0 1.7 1.4 1.8 1.3 1.2-.4-.6-1.5-.5-1.7.6-.7 1.2.9 1.4.6 1.1-1.9-.3-2.1 0-2.9.8-2.4.7.5.8.3.2-.7-1.2-1.9-1.2-3.3.1-4.1.6-.5.5-.8-.4-.8-1.1 0-1.1-.3-.1-1.5.6-.8.9-1.9.5-2.5-.3-.5-.1-1 .6-1 .8 0 .8-.4-.1-1.5-1.1-1.3-1-1.4.5-.9 1.2.5 1.6.4 1.1-.4-.3-.6.2-1.6 1.1-2.2 1.5-.9 1.4-1-.7-.6-1.4.3-1.9.3-1.2 0 .6-.3 1-1 .7-1.4-.3-.5 0-1.2.6-1.6.8-.5.9-.3.4.6-.5.9-.4 1.1.4.6.8-.5.9-1.2.2-2-.7-.9-.6-1.9.4-3.3.8-1.1 1.1-2.4.7-2.9-.4-.5.1-.3 1 .5 1.5 1.1 1.6 1 1.2-1.3-.3-1.9.2-2.9 2.1-4.2 2-1.3 2.3-2 1.5-3.5-.8-1.5-.7-1.7.5-1.3 1.1.5 1.3.2.9-1-.3-.9-1.1-1.3-1.7-.9-.6.3-.7.1-.3-.6.4-.6 1.2-.9 1.7-.6.5.4.9.2.9-.4 0-.5-.3-1.1-.7-1.4-.5-.2-.3-.3.2-.1.6.1 1.9-.4 2.9-1.2 2.5-1.8 3.7-.9 3.4 2.4zm80.7 24c-.3.3-1.1 0-1.8-.7-.9-1-.8-1.1.6-.5 1 .3 1.5.9 1.2 1.2zm79 1.2c.3.5.1 1-.4 1-.6 0-1.1-.5-1.1-1 0-.6.2-1 .4-1 .3 0 .8.4 1.1 1zm.2 8.9c0 1-.7 1.8-1.4 1.8-.9 0-1-.4-.2-1.3.6-.7.7-1.9.3-2.5-.4-.7-.3-.9.4-.5.6.3 1 1.5.9 2.5zm-.4 6.6c-.3.9-.8 1.4-1 1.1-.3-.3-.2-.9.2-1.5.9-1.6 1.5-1.3.8.4zm-179.8.5c.3.5.1 1-.4 1-.6 0-1.1-.5-1.1-1 0-.6.2-1 .4-1 .3 0 .8.4 1.1 1zm-50 27c.3.5-.1 1-1 1s-1.3-.5-1-1c.3-.6.8-1 1-1 .2 0 .7.4 1 1zm-1.5 5c0 .5-.5 1-1.1 1-.5 0-.7-.5-.4-1 .3-.6.8-1 1.1-1 .2 0 .4.4.4 1zm108.5 10.9c.3.5.2 1.2-.3 1.5-.5.3-.9-.1-.9-.9 0-1.7.3-1.9 1.2-.6zm1.5 11.5c0 .2-.6.9-1.4 1.5-1.1.9-1.6.9-2.2 0-.4-.7-.3-.9.4-.5.6.3 1.3.2 1.7-.4.6-1 1.5-1.4 1.5-.6zm-81 37.9c.8.3.3.5-1.1.4-1.8-.1-2.5-.6-2.1-1.5.2-.7.8-.9 1.1-.4.3.5 1.3 1.2 2.1 1.5zm138.9 9.3c-.6.8-1.5 1.2-1.8.8-.3-.4 0-.9.7-1.1.6-.3.9-1 .6-1.5-.4-.7-.2-.8.5-.4.9.6.9 1.1 0 2.2zM390 476.5c.7.9.8 1.5.2 1.5-.5 0-1.2-.7-1.6-1.5-.3-.8-.4-1.5-.2-1.5s.9.7 1.6 1.5zm-19.7 1c-.3.9-.8 1.4-1 1.1-.3-.3-.2-.9.2-1.5.9-1.6 1.5-1.3.8.4zm9.8.8c-.8.8-1.4.7-2.3-.2-1.1-1-.9-1.1.6-.5 1.5.6 1.7.4 1.1-.6-.6-.9-.4-1.1.4-.5.9.5 1 1 .2 1.8zm17.9-1.9c0 .3-.4.8-1 1.1-.5.3-1 .1-1-.4 0-.6.5-1.1 1-1.1.6 0 1 .2 1 .4zm-30 2.1c0 .1-1.2.2-2.6.2-1.7 0-2.2-.2-1.3-.7 1-.7 3.9-.3 3.9.5z"/><path d="M367 282.1c0 .5.5.7 1 .4.6-.3 1-.8 1-1.1 0-.2-.4-.4-1-.4-.5 0-1 .5-1 1.1zM388.5 284c.3.5.8 1 1.1 1 .2 0 .4-.5.4-1 0-.6-.5-1-1.1-1-.5 0-.7.4-.4 1zM423.6 356.8c-.3.5.1.9.9.9s1.2-.4.9-.9c-.3-.4-.7-.8-.9-.8-.2 0-.6.4-.9.8zM425.3 362.2c.3.9.1 1.9-.6 2.2-.9.3-.9.5 0 .5 1.8.1 2.3-1.3 1.1-2.9-.8-1.2-.9-1.2-.5.2zM340 317c-.9.6-1 1-.3 1 .6 0 1.5-.5 1.8-1 .8-1.2.4-1.2-1.5 0zM328.7 336.3c-.3.8 0 1.4.7 1.4s1.3-.6 1.3-1.4c0-.7-.4-1.3-.8-1.3s-.9.6-1.2 1.3zM340.7 339.5c-.4.8-.1 1.7.6 2.1.7.4.9.4.5-.1-.4-.4-.3-1.4.3-2.2.7-.8.8-1.3.1-1.3-.5 0-1.2.7-1.5 1.5zM321.4 367.4c.1.8.5 1.8.8 2.2.4.3.5-.1.4-1-.1-.8-.5-1.8-.8-2.2-.4-.3-.5.1-.4 1zM374.7 224.4c-.4 1-.1 1.3.8.9.8-.3 1.2-.9.9-1.4-.7-1.2-1.1-1.1-1.7.5zM122.4 225.6c.6 2 .4 2.1-3 1.7-2.9-.4-3.5-.2-2.8.9.4.7-.3.4-1.5-.6-1.8-1.7-2.1-1.7-1.5-.3.3 1 .1 1.7-.5 1.7s-1.1-.6-1.1-1.3c0-.9-.3-.8-.9.2-.5.7-1.4 1-2 .7-.6-.4-1.1-.2-1.1.5s-.7.4-1.6-.7c-1.2-1.4-1.4-1.5-1.1-.3.6 1.8-2.7 3.8-5.6 3.3-1.5-.2-1.6 0-.5 1.3 1.1 1.4.8 1.3-2.1-.1-1.8-1-3-1.3-2.7-.7.4.6 0 1.1-.8 1.1s-2 .9-2.6 2c-.6 1.1-1.5 1.8-2.1 1.5-.5-.4-.9-.1-.9.6s-.7.4-1.5-.7c-.9-1.2-1.4-1.4-1.5-.5 0 .7-.6 1.1-1.5.7-.8-.3-1.4-.2-1.4.2.3 1.8-.2 3.2-1.2 3.2-.5 0-.7-.5-.3-1.2.5-.7.3-.8-.5-.4-.7.5-1 1.4-.7 2.2.4 1.2.2 1.2-1.4.4-1.6-.8-2-.8-1.8.2.2.7-.5 1.2-1.4 1.2-1-.1-1.6.2-1.3.6.3.5.1 1.1-.4 1.4-.5.4-1.3.2-1.6-.4-.5-.8-1.1-.7-2.1.1-1.1.9-1.2 1.5-.3 2.6.7.7.9 1.6.5 2-.3.3-.6.1-.6-.5s-.9-1-1.9-.9c-1.1 0-1.7.5-1.5.9.3.4 0 .8-.5.8-.6 0-1 .5-.9 1.2.2.7-.2 1.2-.8 1.3-.6 0-1.8.8-2.8 1.7-1 1-2.4 1.5-3.4 1.1-1.5-.6-1.6-.5-.2 1.3.8 1 1 1.6.6 1.2-.5-.4-1.5-.3-2.3.4-1.1.9-1.2.7-.6-.8.6-1.6.5-1.7-.8-.4-.9.8-1.5 2.5-1.3 3.7.1 1.3-.2 2.1-.7 1.7-.5-.3-.6-1-.3-1.6.5-.7.2-.8-.7-.2-.8.5-1.7.9-2.1.9-.3 0-1 .4-1.5.9s-.3.6.5.2c.6-.4 1.2-.2 1.2.3 0 .6-.4 1.1-.8 1.1-.5 0-1.7.7-2.8 1.6-1.8 1.5-1.8 1.5.3.5 3.4-1.7 4.1-1.3 1 .7-1.5 1-2.4 2.3-2 2.7.5.5 0 .3-.9-.4-2.1-1.5-2.4-.2-.5 1.8 1 1.1.8 1.1-1.1.1-2.3-1.1-2.3-1.1-1.1 1.2 1.1 2 1 2.2-.3 1-1.3-1-1.7-1-2.2.3-.3.9-.2 1.4.2 1.1.5-.3.9.1.9.9s-.3 1.4-.6 1.3c-1.8-.2-3.1.3-3.1 1.3 0 .5.5.7 1.2.3.7-.4.8-.3.4.4s-1.3 1.2-2 1.2c-.8 0-2 .8-2.7 1.7-1.2 1.4-1.2 1.6.1.9.8-.4.5.1-.8 1.1-1.8 1.5-2 2.1-1 3.1 1.1 1.1.9 1.2-.6.6-1.3-.5-1.7-.4-1.2.4.9 1.4-2.5 8.3-3.7 7.5-.6-.4-.8.5-.5 2 .3 1.7.1 2.4-.5 2-.7-.4-.8 0-.4 1.1.6 1.4.3 1.7-.8 1.2-.9-.3-1.4-.2-1.2.2.7 1-1.9 3.2-2.8 2.4-.4-.4.1.6 1.1 2.3 1.8 2.9 1.8 3 0 1.5-1.8-1.4-1.9-1.4-.7.8 1.1 2.1 1 2.4-.8 2.9-1.2.3-2.1 1-2.1 1.5s.4.7.9.3c.5-.3 1.3 0 1.7.6.4.7.3 1-.2.7-.5-.3-1.7.3-2.6 1.3-1.2 1.2-1.3 1.9-.5 2.2.9.3.9.7 0 1.9-1 1.1-1 1.7 0 2.8 1 1 .9 1.2-.3.8-1.1-.4-1.6.1-1.7 1.4-.2 1.7.1 1.8 1.5.7s1.5-1.1.5.1c-.7.8-1.3 2.2-1.3 3.2s-.5 1.8-1.1 1.8c-.5 0-.8-.4-.4-.9.3-.5.1-1.2-.4-1.5-1.2-.8-.8 2.3.5 3.2 1.5 1.1 1.5 3.2 0 2.6-.8-.3-1.7 0-2.2.7-.4.7-.3 1 .4.5.6-.3 1.3-.2 1.7.4.3.5.1 1-.6 1-.8 0-.8.4.1 1.5 1 1.2.9 1.5-.6 1.6-1.2 0-1.4.3-.6.6 1 .4 1 .8 0 2.1-1 1.2-1 1.4-.1.8.9-.5 1.3 0 1.3 1.4s-.4 1.9-1.2 1.4c-.9-.5-.9-.2.1.9 1.1 1.4 1.1 1.7 0 1.7-1.2 0-1.2.2 0 .9.9.6 1 1.1.2 1.5-.6.4-.8 1.3-.4 1.9 1.4 2.3 1.1 4.8-.6 4.2-1.2-.5-1.1-.2.3 1.4 1.2 1.3 1.4 2.1.6 2.6-.8.5-.8 1 0 2 1.4 1.6 2.2 5.7 1 5-1.6-1-1.9 1.2-.5 3.1 1.3 1.6 1.4 1.7.9.1-.3-.9-.2-1.7.3-1.7s.9 1.1.9 2.4c0 1.4-.4 2.2-.8 2-.4-.3-.8 0-.8.5 0 .6.5 1.1 1 1.1.6 0 1 1.8 1 4 0 2.3.5 4 1.1 4 .8 0 .7.6-.2 1.7-1 1.1-1 1.4-.2.9.8-.4 1.3-.2 1.3.8 0 .8-.6 1.7-1.2 1.9-.8.3-.6.6.5.6.9.1 1.7-.4 1.7-1.1 0-.6.3-.8.7-.4.5.4-.1 1.4-1.1 2.2-1.8 1.3-1.9 1.4-.2 1.4 1.4 0 1.7.5 1.3 2.1-.4 1.5-.2 1.8.7 1 .8-.7 1.2-.5 1.3 1 .1 1-.3 1.9-1 1.9-.6 0-.2.7.9 1.6 1 .8 1.3 1.2.5.8-1-.5-.9.2.4 2.4 1 1.7 2.3 2.8 2.9 2.5.6-.4.4.2-.4 1.2-.9 1.1-1 1.6-.2 1.1s1.2.1 1.2 2.1c0 2.3.2 2.5 1.1 1.3.9-1.2 1-1.1.6.7-.5 2.1 1.4 4.9 2.5 3.8.3-.3 1.1.2 1.9 1.2.8.9.9 1.4.3 1-.7-.4-1.4 0-1.7.7-.4 1 0 1.4 1.2 1.1 1-.2 1.8.3 1.8 1 0 .8-.4 1.2-.9.9-.4-.3-.8 0-.8.5 0 .6.5 1.1 1 1.1.6 0 1 .8 1 1.7 0 1.5.2 1.6 1 .3.7-1.1 1-1.1 1-.2 0 .7.5 1 1 .7.6-.4 1-.3.9.2-.4 1.5 2.4 6.2 3.3 5.7 1.3-.8.6 2.9-.7 3.8-.5.4.3.6 1.9.5 1.7-.1 3 .3 3.2 1.1.1.7 0 .8-.3.2-.2-.5-.9-.8-1.3-.5-.9.5 1.8 3.6 5.6 6.5 1.8 1.4 1.8 1.3-.1-1l-2-2.5 2.2 1.9c1.3 1.1 2.3 2.8 2.3 3.8s.8 2.2 1.8 2.5c.9.4 2.3 1.4 3 2.2 1 1.4 1.1 1.3.6-.4-.3-1.1.3-.5 1.5 1.2 1.1 1.8 2.3 3.3 2.6 3.3.4 0 .3-.5 0-1-.3-.6.1-1 .9-1 .9 0 1.5.3 1.5.7-.4 2.2.2 3.3 1.3 2.7.8-.5.9-.2.4 1.1-.5 1.5-.4 1.6.9.5 1-.8 1.5-.9 1.5-.1 0 .6.6 1.1 1.4 1.1.9 0 1.3.7 1.1 2-.3 1.7-.1 1.9 1.6 1 1.4-.8 1.9-.7 1.9.1 0 .8.5.7 1.7-.2 1.5-1.3 1.5-1.2.3 1.1-1.2 2.2-1.2 2.4.3 1.2 1.3-1.1 1.6-1 2.2.9.6 1.7.9 1.9 1.6.8.6-1 .9-1.1.9-.2 0 .7.5 1.3 1.1 1.3.5 0 .7-.5.3-1.2-.4-.7-.3-.8.5-.4.9.6.9 1.1.1 2.1-.9 1.1-.6 1.2 1.2.8 1.8-.4 2-.3.8.6-.9.7-1 1.1-.3 1.1.6 0 1.5-.5 1.8-1 .4-.7 1.2-.7 2.4 0 1 .5 2.2.6 2.6.2.5-.4.5-.1.1.5-.4.7-.2 1.3.4 1.3.6 0 .8.5.5 1-.4.6-.3 1 .2.9 2.1-.4 3.4.2 2.7 1.2-.4.8 0 .8 1.5 0 1.6-.9 2.1-.9 2.1.1 0 .6.7.3 1.5-.8 1.3-1.6 1.4-1.6.9-.2-.4 1.3-.1 1.8 1.1 1.8 1 0 1.3-.5.9-1.2s-.3-.8.4-.4c.6.4.8 1.4.5 2.3-.4 1.1-.3 1.4.5.9.7-.4 1.2-.2 1.2.4 0 .6.5.8 1.1.5 1.7-1.1 7-1.2 7.6-.2.4.6.1.7-.7.2-.9-.5-1.1-.4-.6.4.6.9 1.1.9 2.4-.1 1.2-1 1.4-1 .8-.1-.9 1.6.6 1.7 2 .3.7-.7 1.1-.6 1.1.4 0 .8-.5 1.2-1 .9-.6-.3-.7-.1-.3.6.4.6 1.1.9 1.6.6.4-.3 1 0 1.2.7.3.7.7.5 1.1-.6.5-1.1.3-1.5-.5-1-.7.4-.8.3-.4-.4s1.5-.8 3-.2c1.4.5 2.7.5 3.3-.1.6-.6 1.4-.5 2.1.4 1 1.2.6 1.4-2.3 1.2-2-.1-3.8.1-4 .5-.2.3 2.5.6 6.1.5 4.6 0 6.3-.3 6-1.2-.3-.7.1-1 .9-.6.8.3 1.2.9.9 1.4-.3.5 0 .9.5.9.6 0 1.1-.6 1.1-1.3 0-.8.4-.7 1 .3.9 1.3 1.1 1.3 2 0 .6-1 1-1.1 1-.3 0 .7.5 1.3 1.1 1.3.5 0 .7-.5.4-1-.7-1.1-.4-1.2 3.5-1.4 1.4 0 2.8-.6 3.2-1.1.5-.6.8-.5.8.2s.7 1.3 1.6 1.3c.8 0 1.3-.4 1-.8-.2-.4.4-.9 1.5-.9 1.7-.2 1.8 0 .4 1.3-.8.9-1.5 1.8-1.5 2.2 0 .3.5.1 1.2-.6 1.5-1.5 3.2-1.6 2.3-.1-.4.6.2.5 1.4-.3 1.2-.7 2.1-1.9 2.1-2.6 0-1 .3-1 1.4 0 .8.7 1.1 1.7.8 2.2-.3.5 0 .6.7.2.6-.4.8-1.2.5-1.8-.5-.8-.1-.9 1.1-.4 1.4.5 1.6.4.6-.7-.9-1.2-.7-1.3 1.4-.9 1.4.2 2.5.9 2.5 1.5s.7.2 1.6-.9c.8-1 1.3-1.4 1-.9-.2.6.4 1.1 1.4 1.1 1 0 1.8-.3 1.8-.6-.2-1.1 1.5-4 2.4-4 .5 0 .6.6.2 1.2-.5.9-.2.9.9-.1 1.4-1.1 1.7-1.1 1.7 0 .1 1 .4.9 1.1-.3.5-.9 1.6-1.5 2.4-1.2.8.4 1.2 1.1.8 1.7-.3.6-.1.7.6.3.9-.6.9-1.1 0-2.2s-.7-1.4 1.4-1.4c1.4 0 2.7-.4 2.9-1 .2-.5 1.5-1.1 2.9-1.2 2-.2 2.5-.6 2.1-1.8-.5-1.3-.3-1.3 1.1-.1 1.4 1.1 1.8 1.1 2.3-.3.3-.9 1-1.6 1.6-1.6.5 0 .6.6.2 1.2-.4.7.2.4 1.4-.6 2.4-2.1 2.9-3.2 1-2-.7.4-.8.3-.4-.5.6-.9 1.1-.9 2.2 0 1.2 1 1.3.9.7-.6-.5-1.5-.3-1.7 1.1-1.2 1.1.4 1.5.3 1.1-.4-.4-.6.1-.9 1.1-.7 1.4.2 1.9-.3 1.8-1.9-.1-1.4.3-2 1.2-1.6.8.3 1.1 1 .7 1.6-.3.6-.1.7.5.3.7-.4 1.2-1.3 1.2-2.1 0-.7 1.1-1.6 2.5-1.9 1.4-.4 2.5-1.3 2.5-2.1s.7-1.5 1.6-1.5c.9 0 1.2-.5.8-1.2-.5-.8-.2-.9 1-.5 1 .4 1.5.3 1.1-.3-.3-.6-.1-1 .4-1 .6 0 1.1-.6 1.1-1.4 0-.8.5-1.8 1.2-2.2.7-.4.8-.3.4.4-.4.8-.2 1 .8.6.8-.3 1.7-1.7 2-3 .4-1.4 1.1-2.2 1.6-1.9.5.3 1.4-.4 2-1.5.6-1.1 1.6-1.7 2.2-1.4.7.4.8.3.4-.4s-.2-1.2.3-1.2c.6 0 1.1-.5 1.1-1.1 0-.5-.5-.7-1.2-.3-.7.4-.8.3-.4-.4.4-.6 1.4-.8 2.3-.5 1.2.5 1.5.2 1-1-.3-.9-.2-1.9.4-2.2.5-.4.6-1.2.2-1.8-.4-.7 0-.7 1 .1 1.4 1.2 1.6 1.1 1.2-.7-.2-1.1.1-2.4.7-2.7.7-.4.8-.2.4.4-.4.7-.2 1.2.3 1.2 1 0 1.5-1.4 1.2-3.3-.1-.5.9-.5 2.1-.2 2.3.7 2.3.7.3-.9-2-1.7-2-1.7.5-1.1 1.6.4 2 .3 1.2-.3-1-.7-1-1.1.2-2.1.8-.7 1.3-2.1 1.1-3.1-.2-1.1.3-2.4 1.2-2.8.8-.5 1.6-1.3 1.6-1.8.1-.5.5-.8 1-.6.4.1.5-.9.3-2.3-.3-1.3-.2-2.4.2-2.4 2 .3 3.3-.2 2.7-1.1-.3-.5-1.3-.7-2.3-.4-.9.3-.7-.1.6-.8 1.6-1 1.9-1.7 1.1-2.5-.8-.8-.7-1.3.2-1.8.8-.6 1-.4.4.6-.5 1-.5 1.1.3.4.6-.6 1.2-1.7 1.4-2.5.2-.8.9-2.1 1.6-2.9 1.1-1.1 1.1-1.5 0-2.2-1-.7-1-.9.2-.9 1.3 0 1.3-.1 0-1-1.2-.7-1.2-1-.1-1 .8 0 1.1-.6.7-1.6-.5-1.3-.2-1.5 1.6-1.1 2.3.6 2.3.6.3-1-2-1.5-2-1.5.3-1 2 .5 2.1.3 1.1-1-1-1.2-1-1.6 0-2.3 1.1-.6 1.1-.8 0-1.2-1.2-.4-1.2-.8-.1-2 1-1.3 1-1.7 0-2-1-.4-1-.8-.2-1.9 1.4-1.8 2.6-5.1 1.6-4.5-.4.2-.8-.4-.8-1.5 0-2.1 1.2-2.6 1.9-.7.3.7.4.3.4-1-.1-1.6-.6-2.1-1.7-1.7-.9.3-.8-.1.4-1 1.1-.8 1.4-1.5.8-1.5-.7 0-1.2-.5-1.2-1.1 0-.5.4-.8.9-.5.5.3 1.5-.2 2.2-1.2 1.3-1.6 1.3-1.6-.5-.2-1.8 1.4-1.9 1.3-1.3-.2.4-1.1 0-2.1-1-2.6-1.4-.8-1.3-1 .1-1.5 1.1-.5 1.5-.3 1 .5-.4.7-.3.8.4.4.6-.4.9-1.3.5-2.1-.3-.8.1-1.5.8-1.5.7 0 .9-.3.6-.7-.4-.3-1.7.2-2.9 1.3-1.3 1-1.8 1.2-1.2.4.5-.8.9-2.5.8-3.7 0-1.3.3-2 .9-1.6.5.3.7 0 .5-.8-.3-.8-1.1-1.3-1.7-1.1-.7.1-1-.2-.6-.8.3-.6 1-.8 1.5-.5.4.3 1-.2 1.3-.9.4-1 0-1.4-1.3-1.1-1.1.2-2.2-.1-2.6-.6-.3-.5-.2-.9.3-.8.4.1 1.5.1 2.3 0 1.2-.1 1.2-.3-.2-1.2-1.3-.7-1.5-1.5-.8-3.4.7-1.8.6-2.3-.4-1.9-.7.3-1.3-.2-1.3-1s.3-1.3.7-1.1c.4.2.7-.3.7-1.1 0-.9-.6-1.3-1.5-.9-1.1.4-1.1 0 .3-2.1.9-1.5 1.3-2.4.7-2-1.2.7-2.4-2.8-3.6-10.6-.1-.9-.8-2.4-1.6-3.4s-1-1.5-.3-1.1c.6.4 1.5.3 1.8-.3.4-.6.3-1-.2-.9-2.2.4-3.1-.3-2.8-2.1.2-1.1-.1-2.2-.6-2.5-.5-.4-.6-1.1-.3-1.7.4-.7.2-.8-.5-.4-.9.6-.9 1.2.1 2.4 1.1 1.5 1.1 1.5-.3.4-1-.7-1.5-2.3-1.3-4 .2-2.4.1-2.5-1-.9-1.2 1.5-1.5 1.5-2.5.3-1.3-1.5-4.5-1.1-3.5.5.8 1.4-.3 1-2-.7-.9-.8-1.6-1.1-1.6-.5 0 .6-.5 1.1-1.1 1.1-.5 0-.8-.4-.5-.8.3-.5-.1-.9-.9-.9s-1.2.3-1 .7c.2.4-.2.7-1 .7s-1.2-.4-.9-.9c.3-.4.2-.8-.3-.9-.4 0-2.4-.2-4.3-.4s-4.2.1-4.9.5c-1 .5-2.7-.1-5-1.8-1.9-1.5-3.2-2.1-2.7-1.5.4.7.3 1.3-.3 1.3-.5 0-1.2-.6-1.4-1.3-.4-.9-.6-.9-.6.1-.1 1-.4 1-1.5 0-.8-.7-1.2-1.6-1-2 .2-.4-.1-1-.7-1.4-.8-.5-.9-.3-.4.6.6 1 .4 1.2-.9.7-1-.4-1.5-.3-1.1.3.3.6.1 1-.6 1s-.9.3-.6.7c.4.3.1 1.3-.6 2.1-.9 1.3-.9 1.4.1.8.6-.4 1.2-.2 1.2.3 0 .6-.6 1.1-1.2 1.1-.9 0-.9.3.1.9.9.6 1.6 2.9 1.7 5.5.1 2.6-.2 4.4-.7 4.1-.5-.4-.6.1-.3.9.3.9 1.1 1.3 1.7.9.6-.4.7-.1.1.8-1.2 2-1.3 5.9-.1 6.6.6.4.7.1.2-.8-.8-1.2-.6-1.2.8 0 1.8 1.4 2.4 2.6.8 1.7-.5-.3-1.1.6-1.4 2-.3 1.8-.1 2.4.9 2 .8-.3 1.1 0 .7.9-.3.8-.9 1.3-1.3 1-.5-.3-.6.4-.3 1.5s.9 1.8 1.3 1.5c1-.6.6 3.7-.4 5.4-.6 1-.5 1.2.2.7 1.6-1 1.5.7 0 2.3-.8.9-.8 1.1-.2.8.7-.4 1.5 0 1.8.9.3.8.2 1.2-.3.9-.5-.3-1.2-.1-1.6.5-.3.5-.2 1 .4 1 1.1 0 .9 1.9-.3 3.9-.6 1-.5 1.2.2.7 1.3-.8 1.7.6.5 1.8-1.1 1-1.2 3.7-.2 3 1.3-.8 1.1 1-.3 2.5-1 1.1-1 1.3 0 .7.6-.4 1.2-.3 1.2.1 0 .5-.6 1.5-1.2 2.2-1 1.1-1 1.3 0 .7.6-.4 1.2-.2 1.2.3 0 .6-.4 1.1-.8 1.1-1.4 0-1 2.9.5 3.4.8.3 1.2 1 .9 1.4-.3.5.1.9.9.9s1.2-.3 1-.7c-.2-.4.2-.7 1-.7s1.2.4.9.9c-.5.8.5 1.1 3.8 1.1.9 0 1.7.2 1.6.6-.2 1.8.3 3.1 1.3 3.1.5 0 .8-.4.5-.9-.7-1.1 2.1-.8 3.1.4.4.4.3.5-.3.2-.7-.4-1.5 0-1.8.9-.4 1.1-.2 1.5.7 1.1.7-.3 1.3.3 1.3 1.3 0 1.2-.5 1.6-1.6 1.2-1.2-.5-1.3-.3-.3.9 1.6 2 2.4 6.9 1.1 6.9-.5 0-.8-.7-.5-1.5.4-.8.2-1.7-.2-1.9-1-.6-.8 2.2.3 4.6.5 1 1.3 1.5 2 1.1.7-.4.7-.1-.1.9-.7.8-.9 1.9-.5 2.3.4.5-.2.5-1.3.2-1.7-.6-1.6-.3.5 1.5 1.5 1.3 1.8 1.9.8 1.5-1-.3-2-.2-2.3.3-.4.6.2 1 1.1 1 1.6 0 1.6.1-.2 1.5-1 .8-1.5 1.5-1 1.5s.2.8-.5 1.7c-1.3 1.6-1.2 1.7.4.4.9-.7 1.7-.9 1.7-.3 0 .5-.6 1.2-1.2 1.4-1.9.7-3.9-.2-3.2-1.4.4-.7.2-.8-.4-.4-.7.4-1.2 1.4-1.2 2.3 0 1.1-.5.9-1.8-.8-1.5-1.7-2.1-1.9-2.7-.9-.5.8-.4 1.1.2.7.5-.3 1 0 1 .7 0 .8-.6 1.2-1.4.9-.7-.3-1.3-1.2-1.3-2s-.5-1.1-1-.8c-.6.4-.8 1-.6 1.4.3.4-.2.8-1 .8-.9 0-1.3-.6-.9-1.6.4-1.4.4-1.4-.7-.1-.7.9-2 1.5-2.8 1.5-.8-.1-2.2.4-3 .9-1.3 1-1.3.9-.1-.7 1.2-1.5 1.1-1.7-.3-1.7-.9 0-1.6.8-1.6 1.7 0 1.2-.3 1.4-.8.6-.4-.6-2-1-3.5-.9-2.2.3-2.5.1-1.6-1.1.9-1.1.8-1.2-.5-.7-.9.3-1.6 1.4-1.6 2.3 0 1-.3 1.2-.8.5-.8-1.3-6-1.3-8.1 0-1 .6-1.2.5-.7-.2.8-1.3-2-1.2-4.1.1-.6.4-1.4.3-1.8-.3-.4-.6-1.1-.7-1.7-.4-.7.4-.8.2-.4-.5.6-.9 1.1-.9 2.1-.1.8.7 1.6.7 1.9.2.3-.6-.3-1.2-1.4-1.5-1.1-.3-2.2-.1-2.5.3-.6 1-2.4.8-4.5-.5-1.3-.8-1.3-.7 0 1 1.5 1.9 1.4 1.9-1.2.2-1.9-1.2-2.9-1.4-3.4-.5-.5.7-.2.8.7.3 1.1-.6 1.2-.5.2.5-1.4 1.5-4.6 2.3-3.8 1 1-1.6-1.3-2-2.5-.5-.8 1-1.7 1.2-3 .5-1.1-.6-2.1-.5-3 .3-1.2 1-1.2.9-.1-.5 1.1-1.5 1.1-1.8-.3-1.8-.9 0-1.6.8-1.6 1.7 0 1.2-.3 1.4-.8.6-.4-.6-2-1-3.5-.9-2.2.3-2.5.1-1.6-1.1.9-1.1.8-1.2-.5-.7-.9.3-1.6 1.4-1.6 2.3 0 1-.3 1.2-.8.5-.8-1.3-6-1.3-8.1 0-1 .6-1.2.5-.7-.2.8-1.3-2-1.2-4.1.1-.6.4-1.4.3-1.8-.3-.4-.6-1.1-.7-1.7-.4-.7.4-.8.2-.4-.5.6-.9 1.1-.9 2.1-.1.8.7 1.6.7 1.9.2.3-.6-.3-1.2-1.4-1.5-1.1-.3-2.2-.1-2.5.3-.6 1-2.4.8-4.5-.5-1.3-.8-1.3-.7 0 1 1.5 1.9 1.4 1.9-1.2.2-1.9-1.2-2.9-1.4-3.4-.5-.5.7-.2.8.7.3 1.1-.6 1.2-.5.2.5-1.4 1.5-4.6 2.3-3.8 1 1-1.6-1.3-2-2.5-.5-.8 1-1.7 1.2-3 .5-1.1-.6-2.1-.5-3 .3-1.2 1-1.2.9-.1-.6 1.1-1.4 1.1-1.7-.3-1.7-.9 0-1.6.8-1.6 1.7 0 1.2-.3 1.4-.8.6-.4-.6-2-1-3.5-.9-2.2.3-2.5.1-1.6-1.1.9-1.1.8-1.2-.5-.7-.9.3-1.6 1.4-1.6 2.3 0 1-.3 1.2-.8.5-.8-1.3-6-1.3-8.1 0-1 .6-1.2.5-.7-.2.8-1.3-2-1.2-4.1.1-.6.4-1.4.3-1.8-.3-.4-.6-1.1-.7-1.7-.4-.7.4-.8.2-.4-.5.6-.9 1.1-.9 2.1-.1.8.7 1.6.7 1.9.2.3-.6-.3-1.2-1.4-1.5-1.1-.3-2.2-.1-2.5.3-.6 1-2.4.8-4.5-.5-1.3-.8-1.3-.7 0 1 1.5 1.9 1.4 1.9-1.2.2-1.9-1.2-2.9-1.4-3.4-.5-.5.7-.3.8.7.3 1.2-.8 1.2-.6 0 .8-.7.9-1.8 1.4-2.5 1-.6-.4-1.7-.8-2.5-1-.8-.1-1.8-.8-2.2-1.5-.6-.9-.9-.6-.9 1.1 0 2.3 0 2.3-1.7.4-1-1-1.5-1.4-1.1-.8.4.6-.1 1.1-1.2 1.1-1 0-1.6-.5-1.3-1 .3-.5.1-.6-.6-.2-.6.4-1.9.2-2.7-.5-1.2-1-1.3-.9-.8.5.6 1.5.3 1.5-2 .5-1.6-.8-2.2-1.5-1.5-1.9.7-.5.4-1-.8-1.4-1.7-.7-1.7-.8 0-2.1 1.4-1 1.5-1.4.5-1.8-1-.4-1-.8.2-1.6 1.1-.8 1.2-1.1.2-1.1-.8 0-1-.5-.6-1.2 1-1.6 1.3-6.8.3-6.3-.4.3-1-.2-1.3-1.1-.3-.8-.2-1.2.3-.9.5.3 1.2.1 1.6-.5.3-.5.1-1-.6-1-.8 0-.7-.5.2-1.7.8-.9.9-1.4.3-1-.7.4-1.5 0-1.8-.9-.3-.8-.2-1.2.3-.9.5.3 1.2.1 1.6-.5.3-.5.1-1-.5-1s-.9-.4-.6-.8c.9-1.6 1.5-6.2.6-5.7-.4.3-1.1-.2-1.4-1.1-.3-.8-.2-1.2.3-.9.5.3 1.2.1 1.6-.5.3-.5.1-1-.6-1-.8 0-.7-.5.2-1.7.8-.9.9-1.4.3-1-.7.4-1.5 0-1.8-.9-.3-.8-.2-1.2.3-.9.5.3 1.2.1 1.6-.5.3-.5.1-1-.5-1-.8 0-.8-.6 0-2 .8-1.5.8-2-.1-2-.8 0-.7-.5.2-1.7 1-1.1 1-1.4.2-.9-.7.4-1.3.4-1.3-.1 0-1.2 1.6-3.5 2.4-3.4.3.1.7.1.9 0 2-.6 3.6-.5 3.1.2-.7 1.3 1 1.1 2.3-.2.8-.8 1.3-.8 1.7 0 .4.6 1.2 1.1 1.7 1.1.6 0 .7-.6.3-1.3-.5-.7-.1-.7 1 .2 1.9 1.6 5.8 2.3 5 1-.2-.4 0-1 .6-1.4.5-.3 1-.1 1 .4 0 1.5 2.7 1.4 3.3-.2.4-.9.6-.8.6.2.1 1.1.4 1.1 1.8 0 1.1-1 1.4-1 .9-.2-.4.8-.2 1.3.8 1.3.8 0 1.7-.6 1.9-1.3.4-.9.6-.8.6.2.1 1.1.4 1.1 1.8 0 1.1-1 1.4-1 .9-.2-.4.8-.2 1.3.8 1.3.8 0 1.8-.5 2.1-1.1.4-.6 1.4-.8 2.2-.5 1 .4 1.3.2 1-.8-.3-.7-.1-1.8.5-2.4.6-.6.6-1.2-.1-1.6-.6-.4-1.1-.2-1.1.5s-.3.9-.6.6c-.4-.4-.1-1.3.6-2.2.7-.8.9-1.5.5-1.5s-.2-.7.5-1.6c1.1-1.2 1.1-1.5 0-1.2-.7.2-1.4-.3-1.6-1-.1-.7 0-.8.2-.3.3.6 1.2.7 2 .4 1.2-.4 1.2-.8-.3-1.9-1.5-1.2-1.6-1.5-.3-2.3.8-.5 1.8-.7 2.4-.4.5.3.6.1.2-.5-.4-.6-1.2-.9-2-.6-.7.3-1.3-.2-1.3-1s.4-1.3.9-1c.4.3.8 0 .8-.7 0-.6-.8-.9-2-.6-1.1.3-1.8.1-1.4-.4.3-.5 1.3-.9 2.2-.9 1.5 0 1.5-.2.2-1-1.3-.9-1.3-1 0-1 .9-.1.5-.6-1-1.6-2.5-1.5-2.5-1.5-.1-.8 1.3.3 2.1.2 1.8-.3-.5-.8 1.9-.9 6.6-.4.4.1.7.6.7 1.2 0 .8-.5.8-1.5-.1s-1.5-.9-1.5-.1c0 .6.5 1.2 1 1.2.6.1 1.6.2 2.3.3.6.1 1.1.8.9 1.5-.1.7.2 1 .8.6.6-.3.8-1 .6-1.4-.3-.4.1-.8.9-.8s1.2.8.9 2.1c-.3 2.1-.3 2.1 1.1.2 1.4-1.9 1.5-1.9 1.5-.2 0 1.6.2 1.7 1.7.5.9-.8 1.4-.9 1.1-.4-.4.6-.3 1.7.3 2.5.7 1.2.9 1.1.9-.5.1-1.9.1-1.9 1.4-.2 1.1 1.4 1.5 1.5 1.9.5.4-1 .6-1 .6.1.1 1.1.4 1.1 1.8 0 1.5-1.3 1.5-1.2.4.8-1 1.9-.9 2.2.4 1.7 1-.4 1.5 0 1.5 1.1 0 .9.5 1.3 1 1 .6-.4.7-1.2.3-1.8-.3-.7.4-.3 1.7.8 1.3 1.1 2 1.4 1.6.7-.4-.6-.2-1.2.3-1.2.6 0 1.1.5 1.1 1.1 0 .8.6.7 1.7-.2 1.5-1.3 1.5-1.2.5.7-.9 1.6-.8 2.1.3 2.1.8 0 1.2-.4.9-.9-.3-.4-.1-.8.5-.8s.7-.7.4-1.7c-.5-1.1-.3-1.4.6-.8.7.4.5-.4-.4-1.9-1.3-1.9-1.4-2.6-.5-2.4.7.2 1.9-.7 2.5-2 1.1-2 1.4-2.1 2.6-.9 1.3 1.2 1.6 1.2 2.8 0 1.1-1.2 1.6-1.2 3.2.3s1.9 1.5 1.4.2c-.5-1.2 0-1.5 2-1.3 1.4.2 3.3.9 4.2 1.7.9.7 1.4.8 1 .2-.4-.7 0-1.4.8-1.8.8-.3 1.7 0 2.1.6.5.7.2.8-.6.3-.9-.6-1.1-.4-.5.5.7 1.1 1 1 1.9-.1 1.3-1.7 5.8-1.7 6.4 0 .2.7.8.6 1.8-.4 1.5-1.4 4.4-1 4.4.6 0 .5.5.9 1.1.9.5 0 .8-.4.5-.8-.3-.5.2-.9 1-.9 1 0 1.1.4.4 1.1-.5.5-1 2.7-1 4.9 0 2.8-.3 3.6-1.2 3.1-.7-.5-.2.5 1 2.1 2 2.6 2.1 3.1.8 4.1-1.1.8-1.2 1.4-.4 2.2.9.9.7 1.7-.8 3.3-1 1.3-1.4 1.9-.8 1.6.7-.4 1.7.5 2.4 2.3.7 1.6 1.9 3.5 2.8 4.2 1.2 1 1.4 1 .8 0-.5-.8 0-1.2 1.8-1.2 3.7 0 5.5 1 4.9 2.6-.3.8-.2 1.4.3 1.3 2.2-.4 3.5.2 2.8 1.3-.6 1-.4 1 .7 0 1.7-1.6 3.2-1.6 2.3.1-.5.7 0 .6 1.1-.3 1.1-.9 1.6-1 1.1-.3-.5.9-.1 1.3 1.2 1.3 1.1 0 2.3.8 2.6 1.7 1.1 2.8 2.7 0 3-5.4.2-2.8.6-5.5 1-6.1.3-.6.1-1.4-.4-1.7-.8-.5-.5-1.4.6-2.6 1.7-1.9 1.7-2-.2-1.3-1.6.6-1.7.5-.6-.7 1.6-1.7 1.6-3.2 0-2.3-1 .6-1 .4 0-.7 1.5-1.6 1.6-3.3 0-2.3-.7.5-.8.3-.3-.6.5-.8 1-3.6 1.1-6.2.1-2.7.7-5.5 1.3-6.2.8-.9.7-1.3-.4-1.3-.8 0-1.1.5-.8 1 .4.6.1.7-.7.2-1-.6-1-1 .3-2 1.5-1.1 1.5-1.3-.1-2.9-1.2-1.2-1.3-1.6-.3-1.4.7.2 1.6-.3 1.9-1.1.2-.8 0-1.1-.6-.7-.6.3-1.4.1-1.8-.5-.5-.8-.3-.9.6-.4 1 .6 1.2.3.8-1.3-.4-1.4-.2-2 .5-1.5.7.4.8 0 .4-1.1-.4-1-.3-1.5.3-1.1.6.3 1 .1 1-.4 0-.6-.8-1.1-1.7-1.1-1.5 0-1.6-.2-.3-1 .9-.6 2-.5 3 .3 1.2.9 1.3.9.3-.3-.7-.8-1.3-2.2-1.3-3.3 0-1-.4-1.5-1-1.2-.6.3-.7-.1-.4-.9.3-.9 1.1-1.3 1.8-.9.6.3.8.3.4-.2-.4-.4-.2-1.5.5-2.4 1.1-1.4 1-1.5-.7-.1-1.8 1.4-1.9 1.3-1.3-.2.3-1 .2-2-.4-2.4-.6-.4-.6-1.1.2-2 1.1-1.3.6-1.8-1.5-1.5-.5.1-1.5-.7-2.3-1.9-1.2-1.6-1.8-1.8-3.5-.9-1.1.6-1.8.7-1.5.2.3-.5-.3-1.7-1.4-2.6-1-.9-1.9-1.4-1.9-1.2 0 .3-1-.3-2.2-1.5-2.5-2.3-3.4-2.5-4.1-.8-.5 1.1-1.1-1.4-.9-3.3.1-.3-.6-.6-1.3-.6-1.2 0-1.2.3-.2 1.6 1.1 1.4 1 1.4-.5.2-1-.7-1.8-2-1.8-2.8 0-.8-.4-1.1-1-.8-.5.3-1.8.1-2.7-.5-1.7-1.1-1.7-1.1 0-.6.9.3 1.7.1 1.7-.3 0-1.2-3-2.2-4.2-1.4-.7.4-.8.1-.3-.7.6-1 .4-1.2-.7-.7-1.2.4-1.4 0-1-1.6.5-2 .4-2.1-1.1-.8-1.5 1.2-1.7 1.2-1.1-.3.7-1.9-2-4.5-4.7-4.6-.9 0-2-.7-2.3-1.6-.9-2.4-.7-3.1.5-1.2.5 1 1.4 1.8 2 1.8 1.4 0-3-4.5-4.4-4.5-.7-.1-1.1-.6-1-1.2.1-.6-.4-1.4-1.3-1.7-.8-.3-1.2-.2-.9.4.3.6.1 1-.4 1-1.4 0-1.4-1.7-.1-2.5.6-.4.8-1.1.4-1.6-.4-.6-1.1-.6-1.9.1-1.1.9-1.2.7-.8-.8.3-1.4-.1-2.2-1.6-2.7-1.3-.4-1.8-1.1-1.4-2.2.4-1.1.2-1.4-.5-.9-.7.4-1.2.2-1.2-.4 0-.6-.5-.8-1.2-.4-.9.6-.9.3 0-.9 1.2-1.4 1-1.9-2-3.8-1.8-1.1-2.5-1.9-1.5-1.5.9.3 1.7.1 1.7-.4 0-.6-.6-1-1.4-1-.7 0-2-.8-2.7-1.8-1.3-1.6-1.3-1.6.6-.2 1.9 1.4 2 1.4.2-.6-.9-1.1-1.4-2.4-1-2.8.4-.4.1-.4-.8-.1-.8.3-2.3-.2-3.4-1-1.9-1.6-1.9-1.6.2-.5 1.9.9 2.2.8 1.7-.5-.4-.8-1.3-1.5-2.1-1.5s-1.2-.3-1-.8c.3-.4-1-.7-2.8-.7-3 0-3.2.2-2.2 2 .9 1.8.9 1.9-.6.6-1-.7-1.7-1-1.7-.5s-.8 0-1.6-1.1c-1.6-2-1.6-2-1 .1zm21.1 14.4c.3.5.1 1-.4 1-.6 0-1.1-.5-1.1-1 0-.6.2-1 .4-1 .3 0 .8.4 1.1 1zm19.7 24.4c.7-.4.8-.2.4.5-.9 1.3-2.6.5-2.5-1.2 0-.9.2-.8.6.1.2.6 1 .9 1.5.6zm20.7 17c-.3.3-1.1-.5-1.8-1.7-1.3-2.1-1.2-2.1.5-.5 1 1 1.6 2 1.3 2.2zm10 4.9c0 .9-.2.8-.6-.1-.2-.6-1-.9-1.5-.6-.7.4-.8.2-.4-.5.9-1.3 2.6-.5 2.5 1.2zm22.6 9.7c.3.5.1 1-.4 1-.6 0-1.1-.5-1.1-1 0-.6.2-1 .4-1 .3 0 .8.4 1.1 1zm34.3 6.5c-.3.3-.9-.2-1.2-1.2-.6-1.4-.5-1.5.5-.6.7.7 1 1.5.7 1.8zm-35.3 12.4c.3.5.2 1.2-.3 1.5-.5.3-.9-.1-.9-.9 0-1.7.3-1.9 1.2-.6zm-82.5 5.2c0 .5-.4.9-.8.9-.5 0-.9-.7-.9-1.5s.4-1.2.9-.9c.4.3.8.9.8 1.5zM24.5 402c.3.5.1 1-.4 1-.6 0-1.1-.5-1.1-1 0-.6.2-1 .4-1 .3 0 .8.4 1.1 1zm224 12.9c.3.5.2 1.2-.3 1.5-.5.3-.9-.1-.9-.9 0-1.7.3-1.9 1.2-.6zM54.7 445.6c-.3.3-1.2.4-1.9.1-.8-.3-.5-.6.6-.6 1.1-.1 1.7.2 1.3.5zm120 26.9c0 .8-.4 1.2-.9.9-.5-.3-.6-1-.3-1.5.9-1.3 1.2-1.1 1.2.6zm-15.6 4.8c-1 .9-1.1.8-.5-.6.3-1 .9-1.5 1.2-1.2.3.3 0 1.1-.7 1.8zM313.9 229.7c-1.3 1.5-1.2 1.5.9.4 2.3-1.2 2.8-2.1 1.3-2.1-.5 0-1.5.7-2.2 1.7z"/><path d="M101 230.1c0 .5.5.7 1 .4.6-.3 1-.8 1-1.1 0-.2-.4-.4-1-.4-.5 0-1 .5-1 1.1zM302 230c-.9.6-1 1-.3 1 .6 0 1.5-.5 1.8-1 .8-1.2.4-1.2-1.5 0zM294 253l-2.5 2.1 2.8-1.2c1.5-.7 2.7-1.6 2.7-2.1 0-1.1-.1-1-3 1.2zM57.6 253.2c.3.5 1 .6 1.5.3 1.3-.9 1.1-1.2-.6-1.2-.8 0-1.2.4-.9.9zM463 259.9c0 .6.4 1.3 1 1.6.6.3.7-.1.4-.9-.7-1.8-1.4-2.1-1.4-.7zM474 272c0 .5.5 1 1.1 1 .5 0 .7-.5.4-1-.3-.6-.8-1-1.1-1-.2 0-.4.4-.4 1zM198.5 290c.4.6 1.1.8 1.6.5 1.4-.9 1.1-1.5-.7-1.5-.8 0-1.2.5-.9 1zM26.5 291.1c-.4.6-.5 1.2-.2 1.5.2.3.7-.2 1-1.1.7-1.7.1-2-.8-.4zM226.4 296.7c.2 1 .6 1.7 1 1.6 1.5-.3 1.6-1.1.2-2.2-1.2-1-1.4-.9-1.2.6zM211.5 304c.3.5.8 1 1.1 1 .2 0 .4-.5.4-1 0-.6-.5-1-1.1-1-.5 0-.7.4-.4 1zM211.5 307.1c-.4.6-.5 1.2-.2 1.5.2.3.7-.2 1-1.1.7-1.7.1-2-.8-.4zM262.5 322c.3.5 1.1 1 1.6 1 .6 0 .7-.5.4-1-.3-.6-1.1-1-1.6-1-.6 0-.7.4-.4 1zM167 332.4c0 .2.7.7 1.6 1 .8.3 1.2.2.9-.4-.6-1-2.5-1.4-2.5-.6zM94.3 336.5c0 .8.4 1.2.9.9.5-.3.6-1 .3-1.5-.9-1.3-1.2-1.1-1.2.6zM267 348c-.9.6-1 1-.3 1 .6 0 1.5-.5 1.8-1 .8-1.2.4-1.2-1.5 0zM177.5 349c.3.5.8 1 1.1 1 .2 0 .4-.5.4-1 0-.6-.5-1-1.1-1-.5 0-.7.4-.4 1zM223.5 367c-.3.5-.1 1 .4 1 .6 0 1.1-.5 1.1-1 0-.6-.2-1-.4-1-.3 0-.8.4-1.1 1zM74 395.9c0 .6.4 1.3 1 1.6.6.3.7-.1.4-.9-.7-1.8-1.4-2.1-1.4-.7zM115 395.8c0 1.4 2.8 2.3 3.6 1.1.3-.6.3-1.3 0-1.6-.3-.4-.6-.1-.6.7 0 1-.3 1-1.5 0-.9-.7-1.5-.8-1.5-.2zM122 395.9c0 .6.4 1.3 1 1.6.6.3.7-.1.4-.9-.7-1.8-1.4-2.1-1.4-.7zM163 395.8c0 1.4 2.8 2.3 3.6 1.1.3-.6.3-1.3 0-1.6-.3-.4-.6-.1-.6.7 0 1-.3 1-1.5 0-.9-.7-1.5-.8-1.5-.2zM170 395.9c0 .6.4 1.3 1 1.6.6.3.7-.1.4-.9-.7-1.8-1.4-2.1-1.4-.7zM86.7 468.1c.7.7 1.5 1 1.8.7.3-.3-.2-.9-1.2-1.2-1.4-.6-1.5-.5-.6.5zM327 470c0 .5.5 1 1.1 1 .5 0 .7-.5.4-1-.3-.6-.8-1-1.1-1-.2 0-.4.4-.4 1zM107.6 475.8c-.3.5.1.9.9.9s1.2-.4.9-.9c-.3-.4-.7-.8-.9-.8-.2 0-.6.4-.9.8zM353.9 477.9c1.1.7 1.1.9 0 1.4-.8.3-.4.4.8.4 1.7-.1 1.9-.4 1.1-1.4-.6-.7-1.6-1.3-2.2-1.3-.6 0-.5.4.3.9zM145 479c0 .4 1.8.7 4 .7 2.2-.1 3.7-.3 3.5-.5-.8-.9-7.5-1-7.5-.2z"/></svg>