<svg version="1" xmlns="http://www.w3.org/2000/svg" width="653.333" height="653.333" viewBox="0 0 490.000000 490.000000"><path d="M0 245v245h490V0H0v245zM210.7 27.5c.4.5.6 37 .3 81-.5 73.4-.6 80.3-2.3 83.7-1 2.1-1.7 6.1-1.7 9.2 0 4.7-.4 6-3 9-1.8 2-2.8 4-2.4 5 .7 1.8-3.8 7.7-11.6 15-2.9 2.8-6.9 6.6-8.7 8.3-1.9 1.8-4.3 3.3-5.4 3.3-1.2 0-3.4 1.1-5.1 2.5-1.6 1.4-4.1 2.5-5.6 2.5-1.4 0-4.6 1-7 2.2-11.3 5.4-68.6 5.5-78.9 0-2.1-1.1-5.6-2.3-7.8-2.6-2.7-.4-4.7-1.4-6.2-3.3-1.2-1.5-2.5-2.4-2.8-2.1-1.1 1.1-6.5-1.3-7.6-3.3-.5-1-1.6-1.9-2.3-1.9-1.8 0-10.6-8.3-10.6-10 0-.7-1.4-2.8-3-4.7-1.7-1.8-3-4.5-3-5.8 0-1.3-.6-2.8-1.4-3.2-2-1.2-3.6-4.8-3.6-8.1 0-1.6-1.1-6-2.5-9.7-1.6-4.1-2.5-8.4-2.3-10.9.1-2.2-.1-5-.5-6.1-1.5-4.5-.8-4.6 31.9-4.6 27.3.1 31 .3 32.1 1.7.6.9.9 2.2.7 2.9-.9 2.3 3.8 15.9 6.3 18.2 1.2 1.2 2.3 2.6 2.3 3.1s1 1.2 2.3 1.5c1.2.3 4.2 1.3 6.7 2.2 5.6 2.1 13.7 1.7 20.3-1 2.6-1.1 5-2.7 5.2-3.7.3-.9 1.7-2.3 3-3.2 1.4-.9 2.5-2.5 2.5-3.5s.7-3.7 1.5-6c1.2-3.6 1.4-15.4 1.4-77.9 0-40.5-.1-74.8-.2-76.1-.4-4.4 4.3-5 38-4.8 18.7.1 30.5.6 31 1.2zm240.3.2l10.5.8.8 7.5c.9 8 .3 41.7-.7 42.7-.3.3-16.9.6-36.8.7l-36.3.1-.3 84.5c-.1 46.4-.5 84.7-1 85.2-1.1 1.1-65.2 1.2-66.3.1-.6-.6-1-32.6-.9-83 0-53.7-.3-83-1-84.8l-1-2.6-35.3.2c-19.5.1-35.9-.1-36.5-.5-.9-.5-1.2-7.5-1.2-24.6 0-19.6.3-24.1 1.5-25.3 1.1-1.2 3.3-1.4 9.7-1 4.7.3 9.4 0 10.8-.6 3-1.2 167.5-.7 184 .6zM88.6 272.5c1.3 2.1 1.4 3.2.4 7.7-.7 3.2-.9 7.6-.6 10.8 1.3 10.4 1.8 37.3.7 41.4-.5 2.3-1.1 8.8-1.2 14.6l-.3 10.5 4.3.3c3.6.3 4.8-.1 7.3-2.5 2-1.9 2.7-3.4 2.4-4.9-.8-3 1.6-4.9 4.3-3.4 1.6.8 2.1.8 2.1-.3 0-.7-.5-1.8-1.1-2.4-.8-.8-.1-2 2.3-4.5 9.8-10.2 14.8-16.1 14.8-17.4 0-.9.9-1.8 2-2.1 1.3-.4 2-1.4 2-2.9 0-2.9 2.5-4.2 5-2.6 2.4 1.5 3.1.5 1.8-2.4-1-2.2-.8-2.8 1.6-5.2 6.4-6.3 13.8-14.9 14.7-17 .6-1.5 1.7-2.2 3.4-2.2 2.2 0 2.4-.3 1.5-1.9-1.2-2.3-.3-5.1 1.6-5.1.8 0 1.7-.8 2.1-1.8 1.1-3.1 8.6-9.3 10.3-8.5 1.2.6 43.7.9 70.5.5 2.8-.1 20.3.2 39 .6 32.9.7 34 .8 34.4 2.7.2 1.1 1.6 3.5 3.2 5.3 2.1 2.3 2.7 4 2.4 5.5-.5 1.7.1 2.8 2.4 4.5 2.4 1.7 3.1 3 3.1 5.7s.4 3.4 2.2 3.7c1.7.2 2.5 1.3 3.3 4.8.7 2.9 1.7 4.6 2.8 4.8.9.2 2 1.6 2.3 3 .4 1.5 1.9 4.1 3.5 5.9 1.7 2 2.6 3.9 2.2 5.1-.3 1.2.3 2.5 1.5 3.3 3.1 2.3 4.4 5.6 3.1 8-1.5 2.9-.2 3.5 6.8 3.8 6.2.2 8.4-1 7.6-4-.4-1.4.4-3.1 2.5-5.2 1.7-1.8 3.2-4.3 3.4-5.7.2-1.7 1-2.6 2.6-2.8 1.6-.2 2.2-1 2.2-2.7 0-3.8 1.7-7.2 3.9-7.8 1.5-.4 2.1-1.3 2.1-3.4 0-1.9.9-3.8 2.5-5.3 1.4-1.4 2.5-3.5 2.5-5s1.1-3.6 2.5-5c1.4-1.3 2.5-3.4 2.5-4.6 0-2.3 2.4-5.4 4.1-5.4.5 0 .9-.7.9-1.5 0-2.4 2.2-6.4 3.9-7 2.1-.8 48-.8 53.4 0 3.3.5 4.6.3 5.6-.9 1.6-1.9 4.2-2.1 5.8-.5 1.6 1.6 0 5.3-3.7 9.3-1.7 1.7-4.1 4.3-5.5 5.7-1.4 1.5-2.5 3.9-2.5 5.3 0 1.8-.7 2.9-2.1 3.5-1.2.4-2.7 2.2-3.3 4.2-.6 1.9-2.1 3.8-3.3 4.4-1.7.7-2.3 1.8-2.3 4 0 2-1 3.9-3 5.8-1.6 1.6-3 3.7-3 4.8 0 1.4-.7 1.9-2.6 1.9-2.3 0-2.5.3-1.9 3 .6 2.6.2 3.5-2.9 6.2-2 1.7-3.6 4-3.6 5.1 0 1-.9 2.1-2 2.4-1.4.4-2 1.4-2 3.3 0 1.8-1.1 3.8-3 5.7-1.7 1.5-3 3.8-3 5.1 0 1.5-.7 2.6-1.9 2.9-1.1.3-2.3 2-3 4.4-.6 2.1-2.1 4.3-3.1 4.9-1.1.6-2 2-2 3.2 0 1.1-1.6 3.8-3.5 5.9-1.9 2.2-3.5 4.6-3.5 5.4 0 .8-1.1 1.7-2.3 2.1-1.9.4-2.3 1-1.9 3.1.4 2-.3 3.3-3.2 5.9l-3.7 3.4.4 37.2c.3 20.5.6 38.6.8 40.3l.4 3-31.4.1-31.3.1.6-5.6c.3-3.1.6-21.6.7-41.1l.1-35.5-2.6-.3c-1.7-.2-2.6-.9-2.6-2.1 0-.9-1.4-3-3.1-4.7-2.5-2.4-3-3.5-2.6-6.1.5-2.7.2-3.2-1.6-3.5-1.2-.2-2.8-1.5-3.5-3.1-.7-1.5-2.5-3.5-3.8-4.4-2.1-1.3-2.5-2.3-2.2-5.2.3-3 0-3.6-1.8-3.9-2.1-.3-4.4-3.9-4.4-6.7 0-.7-.9-1.7-2-2-1.3-.4-2-1.5-2-3s-1-3.1-2.5-4.1c-1.3-.9-3-3.1-3.7-5-.6-1.9-2-3.6-3-4-1.1-.3-1.8-1.5-1.8-3 0-1.6-1.3-3.8-3.6-6-3.6-3.3-3.6-3.4-2-5.9l1.7-2.6-3.5.7c-3.6.6-3.6.6-3.6-3 0-2.9-.5-3.9-2.5-4.8-2.8-1.2-3.9-3.8-3-6.7.5-1.6 0-2-2.2-2.3-2.1-.2-2.9-.9-3.1-2.8-.2-1.4-1.5-3.7-2.9-5.2s-2.6-3.6-2.7-4.8c0-1.1-1.2-2.6-2.6-3.3-1.6-.8-2.6-2.3-2.8-4-.5-4.1-3.5-5.2-8.8-3.2-3.8 1.4-4.4 2.1-4.4 4.6 0 3.4-2.3 4.8-5.1 3.1-1-.7-2-.8-2.4-.2-.3.5-.1 1.1.5 1.5 1.7 1.1 1.1 4.7-.9 5.2-1 .3-2.3 1.3-2.7 2.3-.5 1-4.8 6-9.6 11-4.9 5-8.8 9.5-8.8 9.9 0 .4-1.1 1.3-2.5 1.9-1.4.7-2.5 1.8-2.4 2.4.3 2.9-.2 3.8-2.5 3.8-1.9 0-2.5.6-2.8 2.7-.3 2.5-.7 2.8-3.3 2.5-2.4-.3-2.8-.1-1.7.9 2 2.1 1.4 4.9-1.3 6.1-1.4.6-2.5 1.5-2.5 2s-3.1 4.1-7 7.9c-7.4 7.3-7.9 8.4-6.1 16.1.5 2.2 2.1 4.8 4 6.4 2.7 2.3 3.1 3.1 2.5 6-.6 3.2-.4 3.4 2 3.4 1.8 0 2.6.5 2.6 1.8 0 1 1.6 3.3 3.4 5.1 2.9 2.8 3.4 3.9 2.9 6.2-.3 1.8-.1 2.9.6 2.9 2 0 5.1 3.9 5.1 6.4 0 1.5.7 2.6 2 2.9 1.3.3 2 1.4 2 3.1 0 1.4.7 3.1 1.6 3.8 4.8 3.9 5.6 5.1 5.1 7.4-.3 1.8 0 2.4 1.4 2.4 1.2 0 2.4 1.3 3.2 3.2.8 1.8 2.4 4.2 3.6 5.2 1.3 1.2 2.1 3.1 2.1 5.2 0 2.4.5 3.4 2 3.9 2.6.8 4.3 4.1 3.6 7-.5 2-.2 2.4 2.1 2.7 2.1.2 2.9.9 3.1 2.8.2 1.3 1.7 4 3.3 5.8 2.3 2.6 2.7 3.7 1.9 5.1-1.1 2.1-.4 3.1 2.2 3.1 1.2 0 2.4 1.2 3.3 3.3.7 1.8 2.5 3.8 3.9 4.5 1.4.6 2.6 1.8 2.6 2.6 0 1.7-3.4 3.1-5.1 2-1.4-.8-63.6-.7-65 .1-1.4.9-3.9-1.4-3.9-3.6 0-1-.9-2.3-2-2.9-1.1-.6-2-1.9-2-2.9s-1.3-3.5-3-5.6c-1.6-2.1-3-4.8-3-6.1 0-1.2-.8-2.9-1.8-3.6-2.7-1.9-4.2-5.1-3.5-7.6.4-1.6.1-2.2-1-2.2-2.5 0-4.7-2.9-4.7-6.1 0-2.2-.6-3.2-2.5-3.9-1.7-.7-2.5-1.7-2.5-3.4 0-1.3-1.1-3.8-2.5-5.4-1.4-1.7-2.5-4-2.5-5.2 0-1.2-1.4-3.5-3.1-5.1-2.6-2.4-3-3.4-2.4-5.8.7-3.2 1.2-2.9-7-4.6-3.2-.7-5.7.6-10.9 5.7-2.3 2.2-5.2 5-6.6 6.4-1.4 1.3-3.3 2.4-4.2 2.4-.9 0-1.9.9-2.3 1.9-.3 1.1-1.6 2.3-2.8 2.7-1.2.4-3.2 1.6-4.4 2.8-1.2 1.2-3.6 3.2-5.4 4.5l-3.2 2.5.8 8c.8 8.1.8 13.1.3 28.1l-.3 8H27.9l.1-99.9c0-55 .3-100.2.5-100.5.3-.2 12.5-.4 27.3-.2 16.7.1 27.3-.2 28.2-.9 2.2-1.4 2.8-1.3 4.6 1.5z"/></svg>